<?xml version="1.0" encoding="utf-8"?><svg xmlns="http://www.w3.org/2000/svg" xmlns:xlink="http://www.w3.org/1999/xlink" version="1.1" width="1920" height="1193" viewBox="2 2 1916 1189"><path d="M0,0 L1920,0 L1920,1193 L0,1193 Z " transform="translate(0,0)" metadata-bgcolor="#20425c" class="bgcolor-32-66-92" metadata-colorID="32" stroke="black" stroke-width="1" stroke-alignment="outer" style="fill: #FFFFFF" /><path d="M0,0 L1920,0 L1920,561 L1915,562 L1913,561 L1912,564 L1909,564 L1906,565 L1904,565 L1901,565 L1897,565 L1895,566 L1894,564 L1892,569 L1886,569 L1888,568 L1888,566 L1883,567 L1879,568 L1878,571 L1876,570 L1876,567 L1870,568 L1868,570 L1865,567 L1866,564 L1863,563 L1862,565 L1857,567 L1857,564 L1855,564 L1855,559 L1855,556 L1851,554 L1851,552 L1847,550 L1848,547 L1850,546 L1847,542 L1848,540 L1844,535 L1839,528 L1838,522 L1836,516 L1834,523 L1833,527 L1834,530 L1826,541 L1822,542 L1822,544 L1826,542 L1824,547 L1821,549 L1824,549 L1826,550 L1825,553 L1823,554 L1823,557 L1825,555 L1828,555 L1829,552 L1828,558 L1821,566 L1816,570 L1815,571 L1819,572 L1815,576 L1808,576 L1798,573 L1797,570 L1792,568 L1782,561 L1783,558 L1787,560 L1789,561 L1789,559 L1785,555 L1787,554 L1787,556 L1792,556 L1792,552 L1785,546 L1786,543 L1791,546 L1788,543 L1788,541 L1793,543 L1799,543 L1792,540 L1789,537 L1781,531 L1778,525 L1779,522 L1779,524 L1783,525 L1791,532 L1791,529 L1795,529 L1790,527 L1790,525 L1784,523 L1781,520 L1781,515 L1784,516 L1782,511 L1785,511 L1781,508 L1781,506 L1777,504 L1772,498 L1771,492 L1769,483 L1765,496 L1765,501 L1759,508 L1756,511 L1757,514 L1753,517 L1751,517 L1750,520 L1748,521 L1755,522 L1750,527 L1748,527 L1748,529 L1744,531 L1746,532 L1745,533 L1748,533 L1753,528 L1757,527 L1758,525 L1757,530 L1755,534 L1747,540 L1744,541 L1742,544 L1745,544 L1748,545 L1743,549 L1746,549 L1750,545 L1753,544 L1751,548 L1743,555 L1742,558 L1733,561 L1733,564 L1741,564 L1740,567 L1743,567 L1747,566 L1748,563 L1753,561 L1752,565 L1737,574 L1735,576 L1729,576 L1726,574 L1726,572 L1721,571 L1719,569 L1720,568 L1714,564 L1710,558 L1714,559 L1715,562 L1718,562 L1715,558 L1718,557 L1714,553 L1709,549 L1707,545 L1708,542 L1713,545 L1718,550 L1719,547 L1714,544 L1710,541 L1711,537 L1713,537 L1710,534 L1709,530 L1702,521 L1700,512 L1699,511 L1696,521 L1695,526 L1689,533 L1685,535 L1687,537 L1683,541 L1687,543 L1682,548 L1677,550 L1679,552 L1684,551 L1686,547 L1689,546 L1692,543 L1690,550 L1688,550 L1686,554 L1679,560 L1683,561 L1680,565 L1682,565 L1684,561 L1687,560 L1685,564 L1680,569 L1678,571 L1677,573 L1674,574 L1675,576 L1672,577 L1671,579 L1669,579 L1669,577 L1666,577 L1665,573 L1660,575 L1659,571 L1655,570 L1649,562 L1647,553 L1645,557 L1643,566 L1638,572 L1638,573 L1638,580 L1634,583 L1630,584 L1628,589 L1624,590 L1620,591 L1621,595 L1617,594 L1618,587 L1614,586 L1613,581 L1608,583 L1605,585 L1605,581 L1603,581 L1602,583 L1596,585 L1595,582 L1592,581 L1590,584 L1593,591 L1590,593 L1586,593 L1583,594 L1582,597 L1578,596 L1575,597 L1575,595 L1570,594 L1569,593 L1568,595 L1566,595 L1567,598 L1563,600 L1561,604 L1554,605 L1551,603 L1549,602 L1548,607 L1542,607 L1542,605 L1538,606 L1537,605 L1534,609 L1532,609 L1532,611 L1527,610 L1526,608 L1517,608 L1513,606 L1508,605 L1508,607 L1505,608 L1504,610 L1501,610 L1502,617 L1497,615 L1490,614 L1486,618 L1485,620 L1481,619 L1480,616 L1476,619 L1475,624 L1472,625 L1469,622 L1464,622 L1460,618 L1452,624 L1451,626 L1449,626 L1449,624 L1445,625 L1441,623 L1440,621 L1436,620 L1432,619 L1429,619 L1428,624 L1425,628 L1421,627 L1421,629 L1418,629 L1419,632 L1418,634 L1415,634 L1415,628 L1414,627 L1412,623 L1415,623 L1416,619 L1411,617 L1412,613 L1409,613 L1409,610 L1408,612 L1403,611 L1402,613 L1395,612 L1395,623 L1394,625 L1397,626 L1397,630 L1389,629 L1388,623 L1383,622 L1382,620 L1378,621 L1377,619 L1374,618 L1374,616 L1372,617 L1371,620 L1366,619 L1365,622 L1365,620 L1363,619 L1362,620 L1359,621 L1359,628 L1356,630 L1354,629 L1352,633 L1350,627 L1345,626 L1345,624 L1341,626 L1338,623 L1338,621 L1333,620 L1331,614 L1327,614 L1327,617 L1325,617 L1325,619 L1329,621 L1330,623 L1328,626 L1325,625 L1325,628 L1323,629 L1326,632 L1319,631 L1318,626 L1316,626 L1314,620 L1312,620 L1312,618 L1310,618 L1309,622 L1307,622 L1307,624 L1309,625 L1308,632 L1306,632 L1304,630 L1304,627 L1299,626 L1294,631 L1295,633 L1291,634 L1289,639 L1284,640 L1281,642 L1278,641 L1278,638 L1276,636 L1273,632 L1271,631 L1270,635 L1267,635 L1264,636 L1264,641 L1262,640 L1259,639 L1257,634 L1256,637 L1257,641 L1254,641 L1251,640 L1251,642 L1249,642 L1249,636 L1246,636 L1243,637 L1243,635 L1239,636 L1237,640 L1235,640 L1234,644 L1231,644 L1231,646 L1227,646 L1227,643 L1221,644 L1219,640 L1220,635 L1219,632 L1217,632 L1216,630 L1209,632 L1208,637 L1206,638 L1205,641 L1204,639 L1201,640 L1199,637 L1194,637 L1194,639 L1192,639 L1192,641 L1187,643 L1187,641 L1183,642 L1181,644 L1177,644 L1177,646 L1174,645 L1174,641 L1171,642 L1169,641 L1168,645 L1163,644 L1163,649 L1160,651 L1159,649 L1151,651 L1146,648 L1143,651 L1140,654 L1135,653 L1134,650 L1132,649 L1131,651 L1123,652 L1122,656 L1116,654 L1115,651 L1112,650 L1111,653 L1113,655 L1108,657 L1104,656 L1099,657 L1098,656 L1093,656 L1090,661 L1086,661 L1081,662 L1074,660 L1074,662 L1070,663 L1067,662 L1063,665 L1056,666 L1052,667 L1052,669 L1042,670 L1041,667 L1041,664 L1041,662 L1039,662 L1039,658 L1031,659 L1029,656 L1023,657 L1023,655 L1021,655 L1019,653 L1017,653 L1017,658 L1020,659 L1018,663 L1013,664 L1012,662 L1005,665 L1003,663 L996,660 L995,657 L993,657 L992,660 L993,663 L991,665 L985,664 L984,666 L977,664 L973,661 L971,661 L971,664 L964,663 L964,661 L960,661 L958,664 L950,662 L949,659 L946,660 L945,657 L940,656 L937,655 L937,653 L924,654 L924,658 L926,659 L923,661 L920,661 L920,657 L913,655 L906,657 L906,659 L904,659 L902,654 L898,655 L896,660 L893,660 L893,656 L887,656 L885,655 L883,651 L878,652 L875,655 L873,655 L870,655 L868,653 L864,652 L862,646 L859,646 L858,642 L852,643 L850,647 L847,647 L847,649 L844,648 L837,650 L837,647 L835,645 L835,642 L839,641 L839,638 L836,635 L838,632 L836,631 L836,628 L834,628 L833,630 L833,628 L828,629 L827,627 L821,626 L820,635 L816,637 L815,642 L813,642 L811,635 L807,634 L807,630 L803,631 L803,628 L801,628 L799,624 L797,624 L797,626 L795,626 L794,624 L792,624 L791,628 L786,624 L784,623 L784,631 L779,632 L777,630 L777,633 L774,633 L774,628 L774,627 L772,626 L768,624 L766,623 L765,619 L761,617 L760,612 L757,610 L754,613 L756,615 L755,621 L751,619 L751,621 L747,622 L745,621 L745,617 L743,617 L742,612 L739,609 L737,611 L724,609 L709,605 L695,598 L675,585 L647,570 L633,561 L615,550 L606,541 L597,535 L587,532 L572,528 L553,519 L536,509 L514,498 L493,486 L479,477 L465,470 L455,470 L436,464 L429,463 L393,462 L355,456 L344,454 L303,451 L289,445 L269,442 L236,433 L217,430 L205,429 L173,429 L167,430 L100,430 L31,431 L0,431 Z " transform="translate(0,0)" metadata-bgcolor="#4297b5" class="bgcolor-66-151-181" metadata-colorID="10" stroke="black" stroke-width="1" stroke-alignment="outer" style="fill: #FFFFFF" /><path d="M0,0 L32,0 L58,3 L82,9 L101,14 L116,16 L130,22 L171,25 L212,32 L220,33 L256,34 L270,37 L282,41 L292,41 L308,49 L325,60 L351,74 L374,86 L388,94 L399,99 L414,103 L424,106 L430,110 L440,119 L450,126 L470,138 L480,144 L504,157 L519,167 L533,175 L546,179 L561,182 L564,182 L566,180 L567,183 L570,184 L570,189 L573,188 L572,193 L578,193 L577,190 L582,191 L581,186 L581,183 L583,183 L584,181 L589,185 L589,189 L593,191 L595,196 L596,194 L596,196 L600,198 L601,199 L602,196 L603,200 L601,200 L601,205 L604,205 L603,202 L606,202 L606,204 L610,203 L611,195 L616,196 L618,199 L619,196 L622,195 L622,198 L624,198 L624,196 L627,195 L628,200 L630,200 L630,203 L635,201 L635,206 L639,207 L640,214 L642,214 L643,209 L646,207 L648,198 L654,198 L655,201 L661,200 L663,200 L663,203 L666,204 L664,205 L666,209 L668,211 L666,215 L662,214 L664,217 L664,220 L666,221 L672,219 L672,221 L674,221 L674,219 L678,217 L679,215 L685,214 L686,218 L689,217 L691,224 L696,224 L699,227 L701,225 L703,226 L706,222 L711,223 L712,227 L720,228 L720,232 L723,231 L725,225 L730,226 L731,231 L733,231 L733,229 L735,229 L736,227 L741,226 L747,229 L747,233 L752,231 L751,226 L760,224 L764,225 L764,227 L770,228 L774,231 L776,231 L779,234 L785,235 L788,232 L791,233 L791,235 L798,236 L798,233 L801,232 L801,234 L805,235 L811,237 L814,236 L819,235 L818,231 L820,231 L820,229 L822,229 L826,233 L831,235 L833,236 L838,235 L839,233 L840,236 L842,236 L843,234 L845,235 L846,231 L844,230 L844,225 L847,224 L848,227 L851,228 L858,227 L858,231 L863,229 L866,230 L866,234 L868,234 L868,236 L870,237 L869,242 L877,240 L879,241 L879,239 L882,239 L883,237 L890,236 L894,233 L901,234 L901,232 L907,232 L911,233 L915,231 L915,233 L917,233 L919,228 L920,227 L925,227 L927,228 L935,227 L935,229 L939,227 L936,224 L938,224 L939,221 L945,226 L949,228 L949,223 L955,224 L956,222 L958,223 L959,220 L962,222 L962,225 L966,224 L968,225 L970,220 L974,219 L976,221 L980,223 L981,221 L987,220 L988,222 L989,221 L989,215 L994,215 L995,216 L996,213 L1001,213 L1002,217 L1004,218 L1004,216 L1009,214 L1011,212 L1015,214 L1017,212 L1019,213 L1019,211 L1021,211 L1021,209 L1027,208 L1029,211 L1032,212 L1032,209 L1035,209 L1035,203 L1044,201 L1044,204 L1046,204 L1049,208 L1047,208 L1048,211 L1048,215 L1054,215 L1054,218 L1058,218 L1058,216 L1061,215 L1062,212 L1065,210 L1065,207 L1070,207 L1070,209 L1074,206 L1077,208 L1076,214 L1078,214 L1078,212 L1082,211 L1082,209 L1084,205 L1088,210 L1091,213 L1090,207 L1094,206 L1097,206 L1098,203 L1102,203 L1104,207 L1105,210 L1107,211 L1106,213 L1110,212 L1112,210 L1116,210 L1115,208 L1117,208 L1118,205 L1121,204 L1120,202 L1125,199 L1125,197 L1129,198 L1133,201 L1133,204 L1135,204 L1134,199 L1134,196 L1134,194 L1136,194 L1137,190 L1139,190 L1139,192 L1141,192 L1142,190 L1143,198 L1146,197 L1146,202 L1149,202 L1150,200 L1152,200 L1152,197 L1150,196 L1155,197 L1156,194 L1152,191 L1152,189 L1154,189 L1154,186 L1152,185 L1158,186 L1159,184 L1160,192 L1165,192 L1167,195 L1166,196 L1169,197 L1172,196 L1172,198 L1178,198 L1179,204 L1180,200 L1184,201 L1185,200 L1185,192 L1187,191 L1189,192 L1189,190 L1191,191 L1193,191 L1198,192 L1199,188 L1201,188 L1202,190 L1205,190 L1205,193 L1210,191 L1211,194 L1215,195 L1216,201 L1222,201 L1224,202 L1224,198 L1220,197 L1221,195 L1221,184 L1226,183 L1230,183 L1236,182 L1236,185 L1239,184 L1239,187 L1238,189 L1244,190 L1243,196 L1239,195 L1242,198 L1244,200 L1242,200 L1243,204 L1242,206 L1245,203 L1245,201 L1248,201 L1248,199 L1252,199 L1256,191 L1263,190 L1265,192 L1268,193 L1268,195 L1276,196 L1276,198 L1278,198 L1279,195 L1288,189 L1291,193 L1298,193 L1300,196 L1302,195 L1302,190 L1308,187 L1308,191 L1312,192 L1313,187 L1317,185 L1324,186 L1329,189 L1328,182 L1331,182 L1332,179 L1335,179 L1335,177 L1341,177 L1341,179 L1354,179 L1354,182 L1359,183 L1359,181 L1365,176 L1365,178 L1369,177 L1369,179 L1375,179 L1376,174 L1382,175 L1386,176 L1393,170 L1393,167 L1395,167 L1396,164 L1398,166 L1402,167 L1402,169 L1406,167 L1406,169 L1409,168 L1414,163 L1415,165 L1417,165 L1418,163 L1419,163 L1417,156 L1415,155 L1418,155 L1419,152 L1420,154 L1423,153 L1424,156 L1430,153 L1432,153 L1433,156 L1436,153 L1440,153 L1442,158 L1445,159 L1445,166 L1448,167 L1446,162 L1448,160 L1448,163 L1453,160 L1455,161 L1456,155 L1460,154 L1464,153 L1462,154 L1462,157 L1465,156 L1464,161 L1461,164 L1459,164 L1458,168 L1459,171 L1462,168 L1464,169 L1458,176 L1458,179 L1461,180 L1459,182 L1463,180 L1465,179 L1463,183 L1453,191 L1454,193 L1451,195 L1458,192 L1461,190 L1459,194 L1452,200 L1450,201 L1450,205 L1448,205 L1448,208 L1452,207 L1456,204 L1458,205 L1449,214 L1447,214 L1447,217 L1447,218 L1447,221 L1449,222 L1450,216 L1452,213 L1455,212 L1459,207 L1461,208 L1453,217 L1452,221 L1450,224 L1446,224 L1445,226 L1441,224 L1437,224 L1434,217 L1439,218 L1442,220 L1440,216 L1436,214 L1431,209 L1429,205 L1434,208 L1435,204 L1430,197 L1431,195 L1432,198 L1434,198 L1434,194 L1429,189 L1428,185 L1431,186 L1432,187 L1431,184 L1429,183 L1429,175 L1425,169 L1423,160 L1421,171 L1419,174 L1417,174 L1416,177 L1414,177 L1415,182 L1414,186 L1412,189 L1414,190 L1416,186 L1417,190 L1409,197 L1413,198 L1410,199 L1410,201 L1412,202 L1411,205 L1409,207 L1412,212 L1408,214 L1408,216 L1403,218 L1403,221 L1408,219 L1409,221 L1406,224 L1404,224 L1405,227 L1400,225 L1399,220 L1397,220 L1396,222 L1393,223 L1395,226 L1396,227 L1396,229 L1392,230 L1391,230 L1390,235 L1384,231 L1382,233 L1383,236 L1384,238 L1380,239 L1379,236 L1377,235 L1375,235 L1373,237 L1372,234 L1371,237 L1367,238 L1365,235 L1362,235 L1363,229 L1361,231 L1360,231 L1360,233 L1358,233 L1358,229 L1356,229 L1357,233 L1350,232 L1347,229 L1348,222 L1343,227 L1342,224 L1340,228 L1340,231 L1335,232 L1336,235 L1334,236 L1335,238 L1331,239 L1328,244 L1319,242 L1318,245 L1315,244 L1314,248 L1310,249 L1308,249 L1306,251 L1302,252 L1302,248 L1300,250 L1297,250 L1297,248 L1295,248 L1296,252 L1294,256 L1290,255 L1290,250 L1289,254 L1287,254 L1284,249 L1283,246 L1287,246 L1284,244 L1286,240 L1288,241 L1281,232 L1284,230 L1281,227 L1280,223 L1282,222 L1281,218 L1277,207 L1276,206 L1275,213 L1273,218 L1271,220 L1271,224 L1272,228 L1268,233 L1269,237 L1265,242 L1267,243 L1267,246 L1263,248 L1259,243 L1256,241 L1257,239 L1259,239 L1257,234 L1256,230 L1257,228 L1255,225 L1256,217 L1252,210 L1252,204 L1250,204 L1248,214 L1246,218 L1245,223 L1242,226 L1246,225 L1244,229 L1242,231 L1243,236 L1240,240 L1243,244 L1237,248 L1240,250 L1239,255 L1234,256 L1233,255 L1231,259 L1227,259 L1228,255 L1224,259 L1222,257 L1220,257 L1220,254 L1217,255 L1214,252 L1211,252 L1206,249 L1206,246 L1208,248 L1211,247 L1207,241 L1208,239 L1211,239 L1205,234 L1206,231 L1209,233 L1207,231 L1206,226 L1202,218 L1201,214 L1196,226 L1194,228 L1194,232 L1192,234 L1194,235 L1195,232 L1196,235 L1190,240 L1192,242 L1194,241 L1192,245 L1191,247 L1189,247 L1189,250 L1192,252 L1190,256 L1189,262 L1188,262 L1187,257 L1186,259 L1186,262 L1181,261 L1178,257 L1180,256 L1180,253 L1177,254 L1176,256 L1173,255 L1168,256 L1168,253 L1166,252 L1166,250 L1164,249 L1166,243 L1163,246 L1162,243 L1160,247 L1158,250 L1153,249 L1154,245 L1152,245 L1151,250 L1147,249 L1147,251 L1152,252 L1150,254 L1151,256 L1146,256 L1145,261 L1142,262 L1139,262 L1136,261 L1136,259 L1133,259 L1133,261 L1131,261 L1130,259 L1128,262 L1123,262 L1116,264 L1116,261 L1114,262 L1113,260 L1111,264 L1110,260 L1109,270 L1106,271 L1105,267 L1105,271 L1103,272 L1102,270 L1101,272 L1101,273 L1097,274 L1096,277 L1093,277 L1092,280 L1087,277 L1087,274 L1085,274 L1084,276 L1080,274 L1080,279 L1074,281 L1071,279 L1063,277 L1065,273 L1062,273 L1060,272 L1060,275 L1058,275 L1057,277 L1056,274 L1054,274 L1053,271 L1051,273 L1050,272 L1050,274 L1047,274 L1051,278 L1051,280 L1049,281 L1051,283 L1045,287 L1043,285 L1044,288 L1042,288 L1041,286 L1037,287 L1041,291 L1040,293 L1039,297 L1035,298 L1033,296 L1030,296 L1027,301 L1026,303 L1025,303 L1024,306 L1021,306 L1020,308 L1017,305 L1018,309 L1013,308 L1012,306 L1010,308 L1007,305 L1005,304 L1006,301 L1008,300 L1004,296 L1004,294 L1006,294 L1007,294 L1005,290 L1003,285 L1000,281 L999,276 L996,285 L993,291 L991,295 L991,296 L994,295 L992,299 L988,302 L990,306 L987,310 L989,314 L986,315 L986,318 L989,319 L985,321 L976,320 L973,319 L976,322 L976,324 L972,322 L968,317 L968,314 L970,314 L971,312 L974,315 L976,314 L969,308 L972,308 L968,303 L971,303 L974,304 L967,296 L967,293 L971,296 L972,294 L972,292 L967,285 L969,284 L970,284 L970,281 L966,277 L967,274 L971,277 L967,272 L968,269 L966,265 L962,258 L961,251 L960,252 L959,260 L957,263 L955,263 L953,270 L954,274 L949,278 L951,278 L954,276 L953,281 L950,282 L950,286 L950,288 L952,287 L950,291 L950,297 L954,295 L952,299 L944,306 L947,309 L945,314 L943,314 L943,317 L946,318 L946,320 L941,323 L936,327 L931,327 L928,323 L926,323 L926,321 L924,321 L925,324 L921,326 L921,324 L916,325 L915,330 L913,330 L913,326 L908,328 L905,328 L903,324 L899,325 L898,320 L892,319 L888,320 L883,315 L882,312 L879,310 L879,307 L883,306 L880,305 L879,302 L878,304 L873,303 L873,301 L871,300 L871,296 L868,298 L867,302 L863,304 L858,304 L858,301 L856,304 L855,301 L853,302 L852,306 L850,305 L847,308 L844,307 L842,303 L841,302 L838,305 L834,309 L832,315 L827,314 L825,314 L827,317 L823,319 L822,318 L819,317 L819,320 L817,319 L814,326 L811,328 L810,330 L803,328 L800,331 L799,336 L796,336 L796,338 L788,337 L786,337 L785,339 L784,337 L782,336 L782,334 L778,334 L778,337 L775,337 L773,337 L772,337 L771,339 L769,340 L768,340 L771,342 L770,345 L772,346 L771,351 L767,352 L766,353 L764,353 L762,355 L766,357 L766,359 L764,359 L765,364 L761,365 L759,365 L755,368 L755,371 L753,371 L752,374 L752,372 L749,371 L751,370 L750,366 L751,365 L748,363 L745,358 L741,352 L742,348 L744,347 L741,344 L739,340 L739,335 L740,337 L742,337 L746,342 L744,338 L740,333 L741,325 L736,317 L734,306 L732,316 L730,321 L726,327 L726,330 L724,333 L726,337 L721,343 L722,344 L725,339 L727,339 L728,337 L727,344 L723,349 L721,349 L721,352 L723,352 L724,350 L726,349 L725,355 L721,361 L716,361 L715,364 L709,364 L706,360 L706,358 L701,359 L700,354 L704,353 L701,352 L700,350 L698,353 L694,352 L695,350 L692,350 L690,347 L688,348 L686,346 L688,351 L687,354 L686,353 L684,358 L680,358 L680,354 L678,354 L677,356 L676,352 L674,356 L672,355 L673,360 L671,360 L669,365 L666,364 L664,359 L662,362 L658,362 L657,356 L655,359 L652,356 L652,358 L648,358 L643,357 L642,360 L639,356 L637,353 L635,353 L635,351 L629,353 L625,352 L622,347 L618,345 L617,344 L617,341 L621,341 L617,339 L614,339 L614,336 L611,335 L612,332 L610,332 L609,336 L606,333 L607,338 L604,340 L601,341 L600,343 L597,343 L597,338 L594,339 L591,343 L590,345 L587,344 L584,340 L583,342 L578,341 L577,337 L576,342 L571,344 L569,340 L569,333 L567,333 L567,339 L563,338 L560,335 L562,339 L557,338 L556,340 L554,340 L553,337 L546,336 L544,334 L545,332 L540,334 L539,331 L536,330 L535,334 L532,335 L528,335 L526,334 L525,331 L523,327 L517,327 L518,325 L516,324 L516,322 L521,320 L517,320 L515,315 L514,319 L509,321 L507,316 L506,311 L505,316 L504,316 L503,311 L501,315 L499,312 L500,316 L499,317 L501,319 L499,321 L497,320 L498,324 L496,324 L494,326 L489,326 L488,321 L488,326 L486,326 L485,321 L483,324 L480,322 L482,327 L481,330 L479,329 L479,335 L476,336 L475,327 L472,328 L469,325 L465,329 L462,330 L462,327 L461,329 L459,329 L460,333 L458,333 L457,336 L452,333 L456,332 L456,329 L453,330 L450,322 L450,329 L448,330 L446,329 L445,331 L444,328 L448,328 L447,323 L443,321 L442,314 L445,315 L441,311 L440,306 L442,305 L443,309 L442,304 L441,300 L443,299 L440,294 L441,287 L437,277 L435,284 L433,290 L434,297 L431,300 L432,305 L431,306 L431,311 L433,310 L431,314 L428,318 L432,315 L431,322 L428,325 L426,325 L424,332 L419,329 L418,325 L419,323 L417,323 L416,322 L415,325 L411,321 L409,326 L406,327 L405,325 L405,327 L400,328 L398,327 L397,321 L391,321 L391,319 L388,316 L394,315 L394,313 L389,314 L387,309 L385,308 L387,314 L381,315 L381,312 L379,311 L378,306 L378,312 L376,312 L375,309 L373,311 L370,308 L372,312 L371,313 L373,315 L371,316 L369,315 L372,320 L369,320 L367,322 L362,323 L361,318 L361,323 L359,323 L358,319 L356,322 L353,319 L353,317 L348,316 L346,314 L341,309 L338,306 L345,307 L343,305 L344,302 L339,297 L336,294 L336,292 L338,292 L341,295 L339,292 L341,291 L336,287 L334,284 L335,280 L338,283 L338,285 L342,284 L337,280 L334,278 L335,273 L334,269 L329,263 L327,255 L325,259 L323,262 L323,266 L320,270 L319,274 L315,277 L317,278 L317,281 L312,286 L317,284 L318,282 L319,285 L314,290 L310,294 L311,297 L313,297 L314,294 L316,295 L309,303 L307,305 L310,305 L311,308 L313,309 L306,314 L305,317 L296,318 L290,313 L293,313 L295,314 L294,308 L290,303 L291,300 L293,300 L288,294 L289,292 L292,293 L290,289 L290,287 L287,281 L284,272 L282,278 L280,283 L276,289 L277,293 L272,298 L277,295 L276,299 L272,303 L273,306 L274,304 L276,305 L271,313 L271,316 L276,314 L271,319 L266,324 L271,322 L274,322 L267,328 L265,332 L269,332 L270,334 L274,332 L272,336 L271,338 L269,338 L269,336 L267,336 L269,340 L265,342 L265,340 L262,340 L258,340 L258,343 L254,342 L254,340 L252,339 L252,341 L249,342 L248,340 L246,338 L242,340 L240,335 L238,335 L237,337 L235,335 L231,334 L231,332 L230,334 L226,333 L225,326 L222,329 L219,330 L217,332 L213,333 L211,331 L211,334 L207,334 L205,332 L202,330 L202,334 L201,339 L197,338 L197,336 L195,334 L193,338 L191,337 L190,331 L187,332 L187,330 L185,329 L183,325 L185,324 L180,319 L179,317 L182,316 L182,314 L179,310 L181,306 L177,302 L177,299 L179,299 L180,299 L178,295 L177,290 L174,286 L173,281 L172,281 L170,289 L167,296 L167,299 L163,302 L168,300 L166,304 L163,307 L164,312 L162,316 L166,316 L166,319 L162,322 L160,322 L162,324 L165,324 L161,328 L159,328 L158,332 L155,332 L153,328 L149,330 L144,331 L143,328 L139,329 L137,326 L134,326 L132,324 L126,323 L125,322 L122,323 L122,318 L119,318 L118,315 L114,313 L109,316 L103,318 L102,316 L102,317 L97,317 L96,315 L92,314 L91,320 L86,320 L89,319 L89,317 L87,317 L86,315 L85,317 L81,317 L80,311 L78,314 L75,314 L72,313 L71,310 L69,313 L66,312 L65,307 L63,310 L61,308 L57,310 L52,310 L52,306 L54,305 L52,303 L47,304 L48,302 L45,302 L41,300 L39,302 L36,300 L39,300 L39,298 L37,298 L36,295 L35,298 L31,298 L31,292 L29,292 L28,295 L26,294 L25,288 L20,290 L19,289 L14,287 L16,284 L10,280 L10,277 L12,276 L8,271 L10,270 L8,263 L8,260 L6,256 L8,256 L6,254 L3,244 L3,240 L1,240 L0,247 L-2,253 L-4,257 L-2,257 L-4,261 L-5,263 L-4,266 L-6,269 L-8,269 L-8,271 L-5,272 L-5,274 L-10,277 L-9,280 L-11,280 L-13,282 L-16,282 L-17,284 L-20,281 L-19,284 L-23,283 L-25,280 L-27,282 L-30,282 L-28,287 L-33,287 L-34,284 L-36,284 L-35,287 L-39,288 L-41,284 L-43,286 L-47,286 L-49,286 L-50,286 L-54,288 L-54,286 L-57,286 L-61,285 L-63,284 L-62,278 L-65,278 L-67,280 L-69,281 L-69,279 L-71,278 L-71,275 L-72,277 L-76,277 L-75,271 L-78,271 L-82,274 L-84,273 L-85,276 L-89,277 L-91,275 L-91,278 L-94,278 L-94,276 L-96,276 L-97,273 L-101,274 L-102,276 L-108,277 L-110,274 L-109,272 L-112,272 L-113,272 L-117,274 L-119,269 L-119,272 L-121,272 L-122,270 L-127,270 L-124,271 L-124,274 L-122,275 L-124,277 L-130,276 L-144,269 L-143,267 L-140,267 L-140,269 L-138,269 L-140,265 L-146,258 L-141,260 L-140,262 L-137,263 L-135,267 L-133,266 L-137,260 L-134,259 L-130,260 L-127,258 L-134,256 L-133,252 L-138,251 L-137,248 L-132,248 L-135,246 L-134,245 L-141,241 L-141,238 L-137,238 L-136,234 L-142,232 L-143,229 L-148,224 L-145,224 L-141,226 L-140,223 L-148,216 L-149,212 L-146,213 L-144,216 L-141,215 L-146,211 L-146,208 L-144,207 L-148,203 L-147,202 L-154,195 L-155,190 L-157,184 L-159,195 L-164,201 L-166,207 L-165,210 L-171,215 L-173,215 L-173,3 L-142,2 L-73,1 L-6,1 Z " transform="translate(173,428)" metadata-bgcolor="#316990" class="bgcolor-49-105-144" metadata-colorID="27" stroke="black" stroke-width="1" stroke-alignment="outer" style="fill: #FFFFFF" /><path d="M0,0 L14,0 L25,2 L25,6 L21,9 L21,12 L24,13 L82,14 L121,17 L127,18 L127,19 L54,29 L80,31 L110,33 L163,34 L188,39 L216,44 L225,45 L229,47 L229,49 L213,59 L291,62 L325,63 L350,66 L359,68 L356,70 L332,74 L321,77 L305,81 L291,88 L283,93 L424,94 L496,97 L501,98 L497,100 L478,104 L441,110 L413,114 L361,121 L303,126 L268,130 L228,136 L224,136 L224,138 L243,138 L329,143 L333,144 L331,148 L328,152 L345,153 L359,154 L373,148 L375,149 L368,157 L367,159 L373,161 L386,165 L423,167 L438,158 L440,159 L431,169 L428,172 L441,174 L463,177 L468,176 L479,167 L484,164 L482,169 L473,184 L483,185 L498,189 L508,193 L522,196 L530,195 L561,191 L570,190 L592,190 L609,193 L624,197 L657,206 L684,212 L701,215 L737,219 L794,224 L824,228 L844,232 L841,237 L826,253 L820,257 L806,260 L777,260 L768,259 L744,259 L739,260 L726,260 L698,256 L673,256 L663,261 L654,269 L639,275 L626,277 L604,278 L594,280 L584,284 L574,292 L567,298 L560,306 L557,309 L-508,309 L-514,301 L-527,289 L-537,279 L-545,272 L-553,267 L-569,261 L-586,256 L-609,250 L-624,245 L-640,237 L-650,228 L-663,218 L-690,202 L-695,199 L-695,198 L-670,195 L-645,192 L-614,186 L-597,183 L-573,180 L-534,179 L-542,170 L-540,169 L-516,177 L-506,176 L-472,171 L-434,171 L-399,173 L-371,174 L-338,174 L-311,172 L-272,170 L-278,162 L-277,160 L-261,168 L-253,168 L-208,161 L-224,150 L-237,139 L-249,130 L-260,121 L-269,115 L-288,107 L-302,102 L-302,101 L-265,101 L-243,99 L-205,94 L-220,91 L-224,88 L-223,85 L-215,82 L-207,81 L-137,81 L-116,82 L-107,83 L-54,86 L-48,86 L-65,78 L-71,73 L-75,70 L-74,69 L-77,68 L-79,66 L-75,64 L-78,64 L-83,63 L-84,62 L-87,62 L-91,63 L-90,61 L-88,61 L-89,59 L-93,61 L-95,64 L-99,62 L-100,59 L-98,55 L-100,55 L-103,56 L-102,51 L-102,47 L-99,45 L-67,39 L-12,36 L13,36 L8,31 L0,23 L-12,17 L-16,15 L-13,12 L0,10 L12,6 L12,3 L0,1 Z " transform="translate(896,884)" metadata-bgcolor="#61a9c4" class="bgcolor-97-169-196" metadata-colorID="16" stroke="black" stroke-width="1" stroke-alignment="outer" style="fill: #FFFFFF" /><path d="M0,0 L4,0 L4,430 L-463,430 L-457,423 L-451,416 L-440,407 L-430,401 L-424,399 L-416,398 L-394,397 L-381,395 L-366,389 L-354,379 L-347,376 L-322,376 L-294,380 L-281,380 L-276,379 L-252,379 L-243,380 L-214,380 L-200,377 L-192,371 L-178,356 L-177,354 L-189,351 L-216,347 L-259,343 L-302,339 L-324,336 L-350,331 L-375,325 L-396,319 L-421,313 L-428,312 L-450,312 L-484,316 L-494,318 L-503,317 L-514,314 L-529,309 L-547,305 L-545,300 L-537,286 L-553,299 L-572,297 L-593,294 L-587,287 L-581,280 L-591,285 L-597,289 L-634,287 L-647,283 L-653,280 L-651,275 L-647,270 L-661,276 L-684,274 L-692,273 L-690,269 L-687,265 L-759,261 L-796,259 L-796,257 L-766,252 L-737,248 L-696,244 L-659,241 L-607,234 L-561,227 L-531,222 L-523,220 L-524,219 L-596,216 L-738,215 L-734,211 L-718,202 L-705,198 L-690,195 L-677,192 L-664,190 L-663,189 L-676,187 L-695,185 L-785,182 L-808,181 L-805,178 L-794,171 L-791,170 L-791,168 L-804,166 L-847,158 L-860,155 L-881,154 L-879,149 L-871,136 L-859,120 L-852,113 L-838,104 L-825,99 L-807,95 L-783,93 L-746,92 L-732,85 L-722,80 L-679,78 L-609,69 L-583,63 L-566,60 L-556,59 L-540,59 L-485,63 L-399,68 L-384,68 L-334,48 L-311,38 L-284,24 L-270,17 L-257,13 L-251,12 L-169,8 L-63,2 Z " transform="translate(1916,763)" metadata-bgcolor="#102632" class="bgcolor-16-38-50" metadata-colorID="17" stroke="black" stroke-width="1" stroke-alignment="outer" style="fill: #FFFFFF" /><path d="M0,0 L37,0 L66,3 L91,8 L109,14 L124,23 L139,30 L169,41 L199,50 L207,49 L243,39 L269,33 L318,26 L329,25 L342,25 L354,28 L383,42 L402,52 L405,48 L409,41 L410,43 L408,47 L420,41 L436,40 L458,42 L482,50 L488,49 L516,35 L544,22 L554,18 L560,17 L585,18 L604,21 L610,24 L613,26 L657,27 L685,29 L707,33 L723,39 L750,51 L783,66 L799,73 L822,80 L832,86 L839,93 L844,97 L844,99 L782,102 L764,103 L732,109 L728,113 L730,114 L729,118 L731,118 L732,116 L734,119 L732,123 L732,125 L736,126 L739,122 L740,123 L742,121 L743,124 L746,123 L749,123 L749,125 L754,126 L755,121 L756,121 L757,128 L753,129 L757,131 L759,132 L758,134 L764,138 L772,143 L785,149 L785,150 L763,149 L724,147 L715,146 L694,145 L624,145 L612,147 L608,149 L609,152 L619,155 L627,156 L626,158 L579,164 L566,165 L532,165 L558,175 L569,181 L579,190 L599,205 L608,213 L624,224 L624,225 L578,232 L570,232 L554,224 L560,234 L506,237 L493,238 L460,238 L416,236 L397,235 L359,235 L320,241 L313,240 L290,233 L298,242 L298,243 L258,244 L226,248 L180,257 L143,261 L137,262 L155,272 L169,281 L181,290 L188,297 L198,303 L212,309 L229,314 L249,319 L276,328 L285,333 L292,340 L300,347 L312,359 L320,366 L323,372 L-65,372 L-65,2 L-45,1 Z " transform="translate(65,821)" metadata-bgcolor="#102632" class="bgcolor-16-38-50" metadata-colorID="17" stroke="black" stroke-width="1" stroke-alignment="outer" style="fill: #FFFFFF" /><path d="M0,0 L14,0 L25,2 L25,6 L21,9 L21,12 L24,13 L82,14 L121,17 L127,18 L127,19 L54,29 L80,31 L110,33 L163,34 L188,39 L216,44 L225,45 L229,47 L229,49 L213,59 L291,62 L325,63 L350,66 L359,68 L356,70 L332,74 L321,77 L305,81 L291,88 L283,93 L424,94 L496,97 L501,98 L497,100 L478,104 L441,110 L413,114 L361,121 L303,126 L268,130 L228,136 L224,136 L224,138 L243,138 L329,143 L333,144 L331,148 L328,152 L345,153 L359,154 L373,148 L375,149 L368,157 L367,159 L373,161 L386,165 L423,167 L438,158 L440,159 L431,169 L428,172 L438,174 L438,176 L392,176 L305,175 L305,177 L315,179 L385,195 L412,202 L419,205 L419,207 L348,207 L253,204 L137,200 L86,199 L-21,199 L-83,196 L-199,189 L-220,188 L-258,187 L-319,186 L-398,186 L-447,187 L-507,190 L-524,191 L-575,191 L-623,189 L-619,187 L-605,184 L-573,180 L-534,179 L-542,170 L-540,169 L-516,177 L-506,176 L-472,171 L-434,171 L-399,173 L-371,174 L-338,174 L-311,172 L-272,170 L-278,162 L-277,160 L-261,168 L-253,168 L-208,161 L-224,150 L-237,139 L-249,130 L-260,121 L-269,115 L-288,107 L-302,102 L-302,101 L-265,101 L-243,99 L-205,94 L-220,91 L-224,88 L-223,85 L-215,82 L-207,81 L-137,81 L-116,82 L-107,83 L-54,86 L-48,86 L-65,78 L-71,73 L-75,70 L-74,69 L-77,68 L-79,66 L-75,64 L-78,64 L-83,63 L-84,62 L-87,62 L-91,63 L-90,61 L-88,61 L-89,59 L-93,61 L-95,64 L-99,62 L-100,59 L-98,55 L-100,55 L-103,56 L-102,51 L-102,47 L-99,45 L-67,39 L-12,36 L13,36 L8,31 L0,23 L-12,17 L-16,15 L-13,12 L0,10 L12,6 L12,3 L0,1 Z " transform="translate(896,884)" metadata-bgcolor="#89c2d6" class="bgcolor-137-194-214" metadata-colorID="7" stroke="black" stroke-width="1" stroke-alignment="outer" style="fill: #FFFFFF" /><path d="M0,0 L32,0 L58,3 L82,9 L101,14 L116,16 L130,22 L171,25 L212,32 L220,33 L256,34 L270,37 L282,41 L292,41 L308,49 L325,60 L351,74 L374,86 L388,94 L399,99 L414,103 L424,106 L430,110 L440,119 L450,126 L470,138 L480,144 L504,157 L519,167 L533,175 L546,179 L561,182 L563,187 L561,189 L559,193 L556,186 L556,184 L553,185 L550,188 L547,188 L546,192 L543,190 L540,191 L539,194 L535,193 L531,195 L529,188 L527,186 L528,183 L526,183 L526,181 L524,181 L523,185 L516,184 L516,186 L508,188 L506,186 L501,186 L501,178 L496,180 L494,177 L492,176 L492,181 L487,182 L478,184 L478,181 L472,180 L471,178 L474,173 L474,167 L472,166 L468,164 L464,164 L463,169 L458,172 L458,170 L455,170 L453,167 L450,166 L443,168 L437,167 L432,169 L430,169 L428,169 L428,164 L424,163 L423,166 L419,165 L419,163 L417,163 L416,168 L412,167 L406,167 L404,168 L400,163 L397,163 L396,167 L390,165 L388,164 L388,160 L383,161 L381,161 L376,160 L374,162 L370,161 L368,156 L364,157 L360,159 L359,157 L358,159 L351,157 L347,154 L344,155 L340,153 L335,156 L331,157 L327,159 L323,162 L316,162 L314,163 L314,158 L311,155 L311,151 L307,150 L305,154 L303,153 L303,150 L300,150 L300,148 L297,150 L294,150 L292,145 L290,145 L290,147 L288,148 L289,151 L291,153 L288,157 L285,158 L285,155 L283,157 L276,159 L268,155 L265,153 L263,155 L264,158 L262,160 L258,160 L255,162 L249,160 L245,157 L243,160 L237,161 L236,158 L229,159 L224,160 L221,157 L217,157 L216,155 L209,153 L209,151 L203,150 L202,152 L195,153 L196,159 L192,159 L192,156 L189,155 L185,154 L179,157 L178,159 L176,159 L175,153 L171,154 L169,153 L169,160 L164,159 L163,157 L157,156 L155,152 L150,153 L146,156 L144,155 L144,157 L141,156 L138,155 L138,151 L134,149 L131,149 L129,144 L121,150 L114,149 L115,145 L112,144 L112,142 L108,139 L108,135 L104,132 L98,132 L93,131 L92,129 L92,133 L90,138 L89,139 L78,139 L78,135 L74,136 L71,131 L66,130 L66,128 L64,128 L64,130 L60,131 L59,129 L57,130 L54,128 L55,135 L54,139 L50,138 L50,136 L48,136 L47,139 L45,139 L45,134 L43,134 L43,132 L36,131 L34,125 L30,123 L29,118 L27,117 L27,115 L25,116 L25,118 L22,121 L24,121 L26,126 L24,128 L22,127 L21,129 L15,128 L15,125 L13,125 L12,119 L10,119 L9,117 L6,118 L6,120 L4,120 L5,123 L3,128 L1,127 L-1,123 L-1,120 L-4,120 L-6,125 L-11,124 L-10,128 L-15,127 L-16,129 L-19,129 L-19,131 L-23,131 L-27,132 L-26,128 L-28,127 L-29,121 L-33,121 L-34,123 L-38,122 L-40,123 L-42,122 L-41,126 L-45,125 L-49,127 L-54,125 L-54,123 L-56,122 L-55,119 L-57,118 L-58,119 L-61,118 L-61,116 L-65,118 L-66,121 L-70,122 L-70,124 L-75,124 L-76,127 L-79,124 L-79,122 L-84,120 L-85,117 L-83,117 L-84,113 L-84,111 L-84,108 L-86,107 L-88,106 L-93,106 L-94,109 L-98,112 L-100,114 L-103,109 L-108,108 L-109,109 L-115,109 L-116,112 L-117,109 L-121,108 L-122,111 L-126,112 L-130,111 L-130,107 L-135,106 L-135,109 L-139,108 L-139,106 L-142,106 L-141,109 L-142,112 L-144,112 L-145,110 L-148,111 L-154,112 L-157,108 L-163,107 L-162,111 L-168,110 L-173,104 L-173,3 L-142,2 L-73,1 L-6,1 Z " transform="translate(173,428)" metadata-bgcolor="#41799e" class="bgcolor-65-121-158" metadata-colorID="21" stroke="black" stroke-width="1" stroke-alignment="outer" style="fill: #FFFFFF" /><path d="M0,0 L14,0 L25,2 L25,6 L21,9 L21,12 L24,13 L82,14 L121,17 L127,18 L127,19 L54,29 L80,31 L110,33 L163,34 L188,39 L216,44 L225,45 L229,47 L229,49 L213,59 L291,62 L325,63 L350,66 L359,68 L356,70 L332,74 L321,77 L305,81 L291,88 L283,93 L424,94 L496,97 L501,98 L497,100 L478,104 L441,110 L413,114 L361,121 L303,126 L268,130 L228,136 L213,135 L184,132 L122,128 L66,126 L-61,124 L-110,123 L-190,120 L-224,119 L-231,116 L-236,111 L-245,101 L-243,99 L-205,94 L-220,91 L-224,88 L-223,85 L-215,82 L-207,81 L-137,81 L-116,82 L-107,83 L-54,86 L-48,86 L-65,78 L-71,73 L-75,70 L-74,69 L-77,68 L-79,66 L-75,64 L-78,64 L-83,63 L-84,62 L-87,62 L-91,63 L-90,61 L-88,61 L-89,59 L-93,61 L-95,64 L-99,62 L-100,59 L-98,55 L-100,55 L-103,56 L-102,51 L-102,47 L-99,45 L-67,39 L-12,36 L13,36 L8,31 L0,23 L-12,17 L-16,15 L-13,12 L0,10 L12,6 L12,3 L0,1 Z " transform="translate(896,884)" metadata-bgcolor="#90c6d9" class="bgcolor-144-198-217" metadata-colorID="9" stroke="black" stroke-width="1" stroke-alignment="outer" style="fill: #FFFFFF" /><path d="M0,0 L20,0 L41,3 L59,8 L87,20 L115,33 L144,47 L163,56 L182,66 L208,80 L233,95 L246,105 L253,112 L263,118 L277,124 L294,129 L314,134 L341,143 L350,148 L357,155 L365,162 L377,174 L385,181 L388,187 L0,187 Z " transform="translate(0,1006)" metadata-bgcolor="#071219" class="bgcolor-7-18-25" metadata-colorID="19" stroke="black" stroke-width="1" stroke-alignment="outer" style="fill: #FFFFFF" /><path d="M0,0 L176,0 L254,2 L347,6 L422,11 L533,20 L575,20 L677,15 L732,15 L751,17 L758,19 L828,20 L874,21 L899,22 L914,24 L912,26 L890,29 L746,41 L688,47 L659,51 L634,56 L613,58 L580,60 L562,63 L552,66 L563,69 L592,71 L670,76 L742,79 L743,81 L-183,81 L-189,73 L-202,61 L-209,54 L-209,53 L-202,52 L-60,47 L11,43 L76,40 L172,40 L210,42 L253,46 L306,53 L362,62 L421,71 L465,77 L462,76 L442,71 L433,67 L427,63 L425,60 L431,58 L451,56 L533,50 L578,44 L605,40 L612,39 L541,38 L515,36 L411,28 L330,23 L263,20 L199,18 L108,18 L66,19 L41,20 L6,20 L-2,12 L-19,6 L-23,3 L-23,1 Z " transform="translate(571,1112)" metadata-bgcolor="#75b6cc" class="bgcolor-117-182-204" metadata-colorID="2" stroke="black" stroke-width="1" stroke-alignment="outer" style="fill: #FFFFFF" /><path d="M0,0 L1,0 L1,171 L-466,171 L-460,164 L-454,157 L-443,148 L-433,142 L-427,140 L-419,139 L-397,138 L-384,136 L-369,130 L-357,120 L-350,117 L-325,117 L-297,121 L-284,121 L-279,120 L-255,120 L-246,121 L-217,121 L-203,118 L-195,112 L-181,97 L-174,89 L-160,74 L-153,67 L-145,60 L-130,48 L-112,36 L-92,25 L-72,17 L-51,10 L-21,3 Z " transform="translate(1919,1022)" metadata-bgcolor="#071219" class="bgcolor-7-18-25" metadata-colorID="19" stroke="black" stroke-width="1" stroke-alignment="outer" style="fill: #FFFFFF" /><path d="M0,0 L7,0 L27,10 L40,11 L45,14 L53,21 L68,29 L94,37 L92,46 L91,51 L85,58 L81,60 L83,62 L79,66 L83,68 L78,73 L73,75 L75,77 L80,76 L82,72 L85,71 L88,68 L86,75 L84,75 L82,79 L75,85 L79,86 L76,90 L78,90 L80,86 L83,85 L81,89 L76,94 L74,96 L73,98 L70,99 L71,101 L68,102 L67,104 L65,104 L65,102 L62,102 L61,98 L56,100 L55,96 L51,95 L45,87 L43,78 L41,82 L39,91 L34,97 L34,98 L34,105 L30,108 L26,109 L24,114 L20,115 L16,116 L17,120 L13,119 L14,112 L10,111 L9,106 L4,108 L1,110 L1,106 L-1,106 L-2,108 L-8,110 L-9,107 L-12,106 L-14,109 L-11,116 L-14,118 L-18,118 L-21,119 L-22,122 L-26,121 L-29,122 L-29,120 L-34,119 L-35,118 L-36,120 L-38,120 L-37,123 L-41,125 L-43,129 L-50,130 L-53,128 L-55,127 L-56,132 L-62,132 L-62,130 L-66,131 L-67,130 L-70,134 L-72,134 L-72,136 L-77,135 L-78,133 L-87,133 L-91,131 L-96,130 L-96,132 L-99,133 L-100,135 L-103,135 L-102,142 L-107,140 L-114,139 L-118,143 L-119,145 L-123,144 L-124,141 L-128,144 L-129,149 L-132,150 L-135,147 L-140,147 L-144,143 L-152,149 L-153,151 L-155,151 L-155,149 L-159,150 L-163,148 L-164,146 L-168,145 L-172,144 L-175,144 L-176,149 L-179,153 L-183,152 L-183,154 L-186,154 L-185,157 L-186,159 L-189,159 L-189,153 L-190,152 L-192,148 L-189,148 L-188,144 L-193,142 L-192,138 L-195,138 L-195,135 L-196,137 L-201,136 L-202,138 L-209,137 L-209,148 L-210,150 L-207,151 L-207,155 L-215,154 L-216,148 L-221,147 L-222,145 L-226,146 L-227,144 L-230,143 L-230,141 L-232,142 L-233,145 L-238,144 L-239,147 L-239,145 L-241,144 L-242,145 L-245,146 L-245,153 L-248,155 L-250,154 L-252,158 L-254,152 L-259,151 L-259,149 L-263,151 L-266,148 L-266,146 L-271,145 L-273,139 L-277,139 L-277,142 L-279,142 L-279,144 L-275,146 L-274,148 L-276,151 L-279,150 L-279,153 L-281,154 L-278,157 L-285,156 L-286,151 L-288,151 L-290,145 L-292,145 L-292,143 L-294,143 L-295,147 L-297,147 L-297,149 L-295,150 L-296,157 L-298,157 L-300,155 L-300,152 L-305,151 L-310,156 L-309,158 L-313,159 L-315,164 L-320,165 L-323,167 L-326,166 L-326,163 L-328,161 L-331,157 L-333,156 L-334,160 L-337,160 L-340,161 L-340,166 L-342,165 L-345,164 L-347,159 L-348,162 L-347,166 L-350,166 L-353,165 L-353,167 L-355,167 L-355,161 L-358,161 L-361,162 L-361,160 L-365,161 L-367,165 L-369,165 L-370,169 L-373,169 L-373,171 L-377,171 L-377,168 L-383,169 L-385,165 L-384,160 L-385,157 L-387,157 L-388,153 L-372,147 L-358,143 L-320,125 L-283,108 L-254,96 L-225,83 L-180,75 L-164,69 L-145,62 L-138,59 L-130,52 L-115,42 L-104,34 L-97,26 L-77,27 L-58,20 L-20,7 L-3,2 Z " transform="translate(1604,475)" metadata-bgcolor="#457ca1" class="bgcolor-69-124-161" metadata-colorID="24" stroke="black" stroke-width="1" stroke-alignment="outer" style="fill: #FFFFFF" /><path d="M0,0 L20,0 L25,3 L31,11 L41,15 L50,18 L58,26 L93,26 L118,25 L160,24 L251,24 L339,27 L417,31 L489,36 L567,42 L593,44 L667,45 L664,47 L636,51 L594,57 L546,61 L490,65 L478,67 L483,72 L491,76 L510,81 L525,84 L525,85 L509,84 L452,76 L389,66 L344,59 L296,53 L247,49 L224,48 L128,48 L42,52 L-8,55 L-150,60 L-158,60 L-170,49 L-183,43 L-209,35 L-232,29 L-228,28 L-220,29 L-184,31 L-151,32 L-58,32 L-57,26 L-52,18 L-42,11 L-29,5 L-8,1 Z " transform="translate(519,1105)" metadata-bgcolor="#56a3be" class="bgcolor-86-163-190" metadata-colorID="8" stroke="black" stroke-width="1" stroke-alignment="outer" style="fill: #FFFFFF" /><path d="M0,0 L7,0 L18,12 L18,14 L22,16 L28,18 L114,21 L142,22 L191,23 L318,25 L374,27 L436,31 L474,35 L476,36 L476,38 L495,38 L581,43 L585,44 L583,48 L580,52 L597,53 L611,54 L625,48 L627,49 L620,57 L619,59 L463,61 L371,64 L297,67 L223,69 L158,70 L-8,70 L-8,69 L38,62 L44,61 L28,50 L15,39 L3,30 L-8,21 L-17,15 L-36,7 L-50,2 L-50,1 L-13,1 Z " transform="translate(644,984)" metadata-bgcolor="#78b6cd" class="bgcolor-120-182-205" metadata-colorID="15" stroke="black" stroke-width="1" stroke-alignment="outer" style="fill: #FFFFFF" /><path d="M0,0 L20,0 L43,3 L65,7 L88,7 L106,5 L125,5 L125,71 L120,72 L118,71 L117,74 L114,74 L111,75 L109,75 L106,75 L102,75 L100,76 L99,74 L97,79 L91,79 L93,78 L93,76 L88,77 L84,78 L83,81 L81,80 L81,77 L75,78 L73,80 L70,77 L71,74 L68,73 L67,75 L62,77 L62,74 L60,74 L60,69 L60,66 L56,64 L56,62 L52,60 L53,57 L55,56 L52,52 L53,50 L49,45 L44,38 L43,32 L41,26 L39,33 L38,37 L39,40 L31,51 L27,52 L27,54 L31,52 L29,57 L26,59 L29,59 L31,60 L30,63 L28,64 L28,67 L30,65 L33,65 L34,62 L33,68 L26,76 L21,80 L20,81 L24,82 L20,86 L13,86 L3,83 L2,80 L-3,78 L-13,71 L-12,68 L-8,70 L-6,71 L-6,69 L-10,65 L-8,64 L-8,66 L-3,66 L-3,62 L-10,56 L-9,53 L-4,56 L-7,53 L-7,51 L-2,53 L4,53 L-3,50 L-6,47 L-14,41 L-17,35 L-16,32 L-16,34 L-12,35 L-4,42 L-4,39 L0,39 L-5,37 L-5,35 L-11,33 L-14,30 L-14,25 L-11,26 L-13,21 L-10,21 L-14,18 L-14,16 L-18,14 L-21,9 L-12,3 Z " transform="translate(1795,490)" metadata-bgcolor="#4e9eba" class="bgcolor-78-158-186" metadata-colorID="6" stroke="black" stroke-width="1" stroke-alignment="outer" style="fill: #FFFFFF" /><path d="M0,0 L14,0 L25,2 L25,6 L21,9 L21,12 L24,13 L82,14 L121,17 L127,18 L127,19 L54,29 L80,31 L110,33 L163,34 L188,39 L216,44 L225,45 L228,48 L221,51 L220,52 L198,54 L172,54 L133,53 L101,55 L72,57 L48,58 L-26,58 L-49,57 L-72,54 L-82,52 L-94,52 L-94,50 L-98,53 L-103,50 L-101,46 L-88,43 L-67,39 L-12,36 L13,36 L8,31 L0,23 L-12,17 L-16,15 L-13,12 L0,10 L12,6 L12,3 L0,1 Z " transform="translate(896,884)" metadata-bgcolor="#a3d1e2" class="bgcolor-163-209-226" metadata-colorID="14" stroke="black" stroke-width="1" stroke-alignment="outer" style="fill: #FFFFFF" /><path d="M0,0 L22,0 L39,3 L54,7 L87,16 L114,22 L131,25 L167,29 L187,31 L189,32 L189,34 L142,36 L109,37 L75,37 L50,36 L25,34 L-1,31 L69,46 L89,51 L91,53 L75,52 L21,44 L-19,38 L-53,32 L-104,24 L-115,21 L-118,18 L-117,13 L-111,9 L-98,6 L-89,5 L-57,4 L-48,6 L-40,5 L-9,1 Z " transform="translate(1466,1074)" metadata-bgcolor="#78b6cd" class="bgcolor-120-182-205" metadata-colorID="15" stroke="black" stroke-width="1" stroke-alignment="outer" style="fill: #FFFFFF" /><path d="M0,0 L10,0 L57,4 L90,6 L137,8 L241,9 L238,12 L227,20 L223,28 L222,32 L202,33 L129,33 L96,32 L60,30 L45,28 L28,22 L17,16 L7,7 L0,1 Z " transform="translate(239,1105)" metadata-bgcolor="#84c0d3" class="bgcolor-132-192-211" metadata-colorID="1" stroke="black" stroke-width="1" stroke-alignment="outer" style="fill: #FFFFFF" /><path d="M0,0 L90,0 L134,2 L173,5 L203,8 L249,12 L249,13 L-267,13 L-273,5 L-275,2 L-262,2 L-204,4 L-137,4 L-47,1 Z " transform="translate(655,1180)" metadata-bgcolor="#4c9db9" class="bgcolor-76-157-185" metadata-colorID="4" stroke="black" stroke-width="1" stroke-alignment="outer" style="fill: #FFFFFF" /><path d="M0,0 L20,0 L25,3 L31,11 L41,15 L50,18 L59,27 L67,33 L64,36 L40,45 L18,50 L-3,53 L-13,53 L-15,45 L-19,53 L-23,54 L-43,54 L-51,50 L-57,41 L-58,38 L-58,28 L-53,19 L-42,11 L-29,5 L-8,1 Z " transform="translate(519,1105)" metadata-bgcolor="#0c1c28" class="bgcolor-12-28-40" metadata-colorID="31" stroke="black" stroke-width="1" stroke-alignment="outer" style="fill: #FFFFFF" /><path d="M0,0 L5,4 L8,3 L8,5 L13,7 L13,10 L12,15 L14,15 L15,17 L18,14 L20,14 L21,12 L21,14 L24,15 L23,20 L25,20 L27,17 L27,19 L33,18 L35,21 L35,18 L41,17 L42,15 L42,17 L45,17 L46,19 L49,18 L51,14 L52,17 L53,15 L55,15 L56,13 L57,15 L60,15 L62,15 L63,13 L63,16 L67,13 L67,15 L70,12 L77,12 L77,60 L75,62 L73,61 L73,64 L71,65 L70,67 L67,65 L67,63 L66,65 L63,65 L63,67 L66,68 L63,70 L56,71 L56,69 L53,69 L51,72 L48,69 L46,74 L42,72 L42,70 L39,74 L40,76 L34,76 L34,74 L29,76 L23,75 L23,77 L19,75 L14,70 L15,68 L18,70 L21,69 L19,68 L20,66 L14,61 L7,56 L7,54 L12,56 L12,58 L14,57 L7,49 L7,46 L11,49 L11,51 L17,52 L15,49 L21,51 L25,51 L16,48 L11,42 L11,40 L15,40 L15,38 L17,37 L13,35 L16,34 L12,32 L12,29 L6,24 L3,20 L4,18 L8,22 L8,24 L12,25 L11,20 L15,20 L10,17 L10,15 L6,13 L2,9 L0,4 Z " transform="translate(1843,549)" metadata-bgcolor="#266088" class="bgcolor-38-96-136" metadata-colorID="26" stroke="black" stroke-width="1" stroke-alignment="outer" style="fill: #FFFFFF" /><path d="M0,0 L2,3 L4,12 L9,18 L9,20 L13,21 L14,24 L20,22 L20,27 L23,27 L23,29 L25,29 L26,24 L31,22 L31,20 L33,20 L34,25 L30,29 L26,30 L33,30 L37,26 L40,26 L42,22 L45,19 L43,24 L39,29 L31,34 L29,34 L28,37 L23,39 L28,38 L32,39 L36,35 L38,35 L36,39 L29,44 L28,47 L34,43 L36,44 L29,49 L26,50 L24,54 L26,55 L30,52 L33,53 L24,61 L17,67 L19,67 L22,67 L26,62 L29,61 L34,56 L37,56 L32,62 L27,67 L28,70 L30,66 L35,67 L32,70 L21,76 L19,78 L8,80 L17,80 L22,83 L21,87 L17,86 L16,89 L11,90 L9,93 L5,91 L3,94 L5,95 L1,96 L-1,94 L-4,95 L-6,95 L-6,97 L-10,96 L-14,96 L-14,98 L-11,99 L-13,103 L-18,101 L-22,101 L-21,94 L-15,89 L-14,86 L-18,91 L-21,92 L-24,100 L-27,99 L-27,97 L-29,96 L-26,95 L-26,92 L-18,85 L-18,84 L-23,87 L-30,88 L-27,86 L-25,86 L-25,83 L-22,80 L-25,79 L-19,77 L-18,74 L-16,72 L-26,75 L-23,72 L-21,70 L-16,65 L-9,59 L-12,61 L-15,60 L-13,58 L-15,57 L-16,53 L-11,49 L-11,47 L-14,50 L-16,49 L-15,47 L-17,45 L-9,38 L-9,35 L-11,35 L-11,32 L-9,32 L-9,24 L-11,23 L-6,18 L-3,14 Z " transform="translate(1646,550)" metadata-bgcolor="#244e73" class="bgcolor-36-78-115" metadata-colorID="33" stroke="black" stroke-width="1" stroke-alignment="outer" style="fill: #FFFFFF" /><path d="M0,0 L26,0 L68,2 L149,4 L191,9 L217,13 L220,15 L160,16 L121,17 L42,17 L14,16 L-19,13 L-44,9 L-44,7 L-37,5 L-10,1 Z " transform="translate(1024,1096)" metadata-bgcolor="#7cbad0" class="bgcolor-124-186-208" metadata-colorID="11" stroke="black" stroke-width="1" stroke-alignment="outer" style="fill: #FFFFFF" /><path d="M0,0 L14,0 L25,2 L25,6 L21,9 L21,12 L24,13 L82,14 L121,17 L127,18 L127,19 L54,29 L80,31 L110,33 L137,34 L137,35 L98,38 L16,39 L-16,39 L-29,38 L-29,37 L-12,36 L13,36 L8,31 L0,23 L-12,17 L-16,15 L-13,12 L0,10 L12,6 L12,3 L0,1 Z " transform="translate(896,884)" metadata-bgcolor="#94c9db" class="bgcolor-148-201-219" metadata-colorID="3" stroke="black" stroke-width="1" stroke-alignment="outer" style="fill: #FFFFFF" /><path d="M0,0 L8,0 L42,9 L57,14 L59,16 L51,20 L33,24 L18,26 L-17,29 L-27,29 L-43,19 L-60,9 L-60,8 L-35,5 L-10,2 Z " transform="translate(261,1074)" metadata-bgcolor="#8cc3d6" class="bgcolor-140-195-214" metadata-colorID="5" stroke="black" stroke-width="1" stroke-alignment="outer" style="fill: #FFFFFF" /><path d="M0,0 L15,2 L34,3 L48,6 L75,8 L78,9 L78,30 L73,31 L71,30 L70,33 L67,33 L64,34 L62,34 L59,34 L55,34 L53,35 L52,33 L50,38 L44,38 L46,37 L46,35 L41,36 L37,37 L36,40 L34,39 L34,36 L28,37 L26,39 L23,36 L24,33 L21,32 L20,34 L15,36 L15,33 L13,33 L13,28 L13,25 L9,23 L9,21 L5,19 L6,16 L8,15 L5,11 L6,9 L2,4 Z " transform="translate(1842,531)" metadata-bgcolor="#41799e" class="bgcolor-65-121-158" metadata-colorID="21" stroke="black" stroke-width="1" stroke-alignment="outer" style="fill: #FFFFFF" /><path d="M0,0 L15,0 L28,4 L37,7 L50,8 L54,10 L49,14 L47,14 L47,16 L43,18 L45,19 L44,20 L47,20 L52,15 L56,14 L57,12 L56,17 L54,21 L46,27 L43,28 L41,31 L44,31 L47,32 L42,36 L45,36 L49,32 L52,31 L50,35 L42,42 L41,45 L32,48 L32,51 L40,51 L39,54 L42,54 L46,53 L47,50 L52,48 L51,52 L36,61 L34,63 L28,63 L25,61 L25,59 L20,58 L18,56 L19,55 L13,51 L9,45 L13,46 L14,49 L17,49 L14,45 L17,44 L13,40 L8,36 L6,32 L7,29 L12,32 L17,37 L18,34 L13,31 L9,28 L10,24 L12,24 L9,21 L8,17 L1,8 Z " transform="translate(1701,513)" metadata-bgcolor="#41769b" class="bgcolor-65-118-155" metadata-colorID="28" stroke="black" stroke-width="1" stroke-alignment="outer" style="fill: #FFFFFF" /><path d="M0,0 L4,3 L8,5 L4,6 L4,8 L25,11 L46,14 L50,14 L48,19 L42,27 L38,28 L38,30 L42,28 L40,33 L37,35 L40,35 L42,36 L41,39 L39,40 L39,43 L41,41 L44,41 L45,38 L44,44 L37,52 L32,56 L31,57 L35,58 L31,62 L24,62 L14,59 L13,56 L8,54 L-2,47 L-1,44 L3,46 L5,47 L5,45 L1,41 L3,40 L3,42 L8,42 L8,38 L1,32 L2,29 L7,32 L4,29 L4,27 L9,29 L15,29 L8,26 L5,23 L-3,17 L-6,11 L-5,8 L-5,10 L-1,11 L7,18 L7,15 L11,15 L6,13 L6,11 L0,9 L-3,6 L-3,1 L0,2 Z " transform="translate(1784,514)" metadata-bgcolor="#3e789c" class="bgcolor-62-120-156" metadata-colorID="18" stroke="black" stroke-width="1" stroke-alignment="outer" style="fill: #FFFFFF" /><path d="M0,0 L1,0 L4,11 L7,18 L6,22 L7,26 L9,29 L6,30 L9,34 L9,36 L12,37 L12,39 L9,40 L8,42 L12,44 L9,46 L9,44 L7,44 L11,49 L11,52 L13,52 L13,47 L15,48 L15,53 L10,56 L4,54 L-1,57 L-3,57 L-5,60 L-9,59 L-12,59 L-15,62 L-18,59 L-22,61 L-26,58 L-31,62 L-34,59 L-35,64 L-40,62 L-38,61 L-41,59 L-41,57 L-47,56 L-44,55 L-43,52 L-40,52 L-40,54 L-37,51 L-36,48 L-41,47 L-36,43 L-34,42 L-36,40 L-37,37 L-35,37 L-35,33 L-35,30 L-31,24 L-35,24 L-31,20 L-31,14 L-28,10 L-26,2 L-24,2 L-22,9 L-19,15 L-19,21 L-19,24 L-18,27 L-19,30 L-16,35 L-16,39 L-19,39 L-12,45 L-9,43 L-11,41 L-10,37 L-8,37 L-9,32 L-10,30 L-5,26 L-6,22 L-4,19 L-6,18 L-3,14 Z M-23,58 Z " transform="translate(1449,630)" metadata-bgcolor="#244e73" class="bgcolor-36-78-115" metadata-colorID="33" stroke="black" stroke-width="1" stroke-alignment="outer" style="fill: #FFFFFF" /><path d="M0,0 L1,2 L4,1 L5,4 L11,1 L13,1 L14,4 L17,1 L21,1 L23,6 L26,7 L26,14 L29,15 L27,10 L29,8 L29,11 L34,8 L36,9 L37,3 L41,2 L45,1 L43,2 L43,5 L46,4 L45,9 L42,12 L40,12 L39,16 L40,19 L43,16 L45,17 L39,24 L39,27 L42,28 L40,30 L44,28 L46,27 L44,31 L34,39 L35,41 L32,43 L39,40 L42,38 L40,42 L33,48 L31,49 L31,53 L29,53 L29,56 L33,55 L37,52 L39,53 L30,62 L28,62 L28,65 L28,66 L28,69 L30,70 L31,64 L33,61 L36,60 L40,55 L42,56 L34,65 L33,69 L31,72 L27,72 L26,74 L22,72 L18,72 L15,65 L20,66 L23,68 L21,64 L17,62 L12,57 L10,53 L15,56 L16,52 L11,45 L12,43 L13,46 L15,46 L15,42 L10,37 L9,33 L12,34 L13,35 L12,32 L10,31 L10,23 L6,17 L4,8 L2,15 L0,11 L-2,4 L-4,3 L-1,3 Z " transform="translate(1592,580)" metadata-bgcolor="#286289" class="bgcolor-40-98-137" metadata-colorID="23" stroke="black" stroke-width="1" stroke-alignment="outer" style="fill: #FFFFFF" /><path d="M0,0 L2,1 L5,10 L8,16 L9,18 L7,18 L10,22 L9,24 L6,23 L12,31 L8,32 L13,39 L13,44 L9,43 L13,46 L27,46 L26,48 L24,48 L25,50 L30,48 L26,52 L21,55 L21,57 L26,56 L21,62 L18,64 L15,64 L14,67 L11,67 L11,69 L7,68 L7,70 L4,71 L3,69 L1,68 L0,70 L-5,68 L-5,71 L-11,75 L-12,70 L-11,69 L-13,67 L-11,63 L-15,63 L-20,62 L-17,58 L-12,53 L-12,52 L-16,54 L-19,53 L-15,49 L-8,44 L-12,45 L-13,42 L-8,34 L-9,35 L-12,35 L-11,31 L-7,27 L-8,26 L-12,28 L-12,25 L-7,22 L-6,19 L-8,18 L-4,12 L-2,7 Z " transform="translate(456,699)" metadata-bgcolor="#244e73" class="bgcolor-36-78-115" metadata-colorID="33" stroke="black" stroke-width="1" stroke-alignment="outer" style="fill: #FFFFFF" /><path d="M0,0 L1,0 L3,10 L7,17 L6,24 L10,26 L10,29 L8,29 L6,27 L9,32 L14,37 L11,37 L11,39 L9,39 L13,46 L11,49 L7,48 L13,53 L13,55 L19,57 L20,61 L17,61 L12,59 L15,65 L18,65 L18,67 L14,68 L14,66 L12,66 L11,68 L10,65 L8,70 L4,69 L4,66 L1,70 L3,71 L2,73 L-2,71 L-3,66 L-3,65 L-8,67 L-10,69 L-19,67 L-19,65 L-15,64 L-15,61 L-20,62 L-21,58 L-15,57 L-15,55 L-12,52 L-16,49 L-16,47 L-12,43 L-13,40 L-13,39 L-15,38 L-7,31 L-7,28 L-9,31 L-13,29 L-9,26 L-9,18 L-6,15 L-4,15 L-1,1 Z " transform="translate(1596,587)" metadata-bgcolor="#244e73" class="bgcolor-36-78-115" metadata-colorID="33" stroke="black" stroke-width="1" stroke-alignment="outer" style="fill: #FFFFFF" /><path d="M0,0 L9,0 L20,4 L31,9 L52,10 L58,13 L65,17 L63,20 L63,18 L58,19 L57,17 L51,16 L50,25 L46,27 L45,32 L43,32 L41,25 L37,24 L37,20 L33,21 L33,18 L31,18 L29,14 L27,14 L27,16 L25,16 L24,14 L22,14 L21,18 L16,14 L14,13 L14,21 L9,22 L7,20 L7,23 L4,23 L4,18 L4,17 L2,16 L-2,14 L-4,13 L-5,9 L-9,7 L-7,3 Z " transform="translate(770,610)" metadata-bgcolor="#5186a8" class="bgcolor-81-134-168" metadata-colorID="20" stroke="black" stroke-width="1" stroke-alignment="outer" style="fill: #FFFFFF" /><path d="M0,0 L27,0 L52,2 L58,3 L58,4 L-15,14 L-24,14 L-44,8 L-42,6 Z " transform="translate(965,899)" metadata-bgcolor="#a9d5e5" class="bgcolor-169-213-229" metadata-colorID="13" stroke="black" stroke-width="1" stroke-alignment="outer" style="fill: #FFFFFF" /><path d="M0,0 L2,3 L6,14 L9,17 L7,17 L7,20 L10,21 L8,23 L6,21 L8,25 L12,29 L9,30 L9,32 L12,36 L8,38 L7,38 L14,42 L12,45 L11,47 L7,46 L7,49 L5,49 L4,52 L2,48 L1,50 L-1,50 L-2,49 L-1,54 L-6,53 L-9,50 L-11,50 L-10,42 L-9,41 L-12,38 L-11,36 L-9,36 L-8,32 L-9,30 L-11,29 L-5,24 L-5,22 L-6,24 L-9,23 L-5,18 L-8,17 L-5,15 L-2,9 Z M-8,48 Z " transform="translate(1373,639)" metadata-bgcolor="#244e73" class="bgcolor-36-78-115" metadata-colorID="33" stroke="black" stroke-width="1" stroke-alignment="outer" style="fill: #FFFFFF" /><path d="M0,0 L9,4 L22,8 L33,13 L40,15 L50,17 L61,23 L63,25 L60,32 L57,32 L57,28 L51,28 L49,27 L47,23 L42,24 L39,27 L37,27 L34,27 L32,25 L28,24 L26,18 L23,18 L22,14 L16,15 L14,19 L11,19 L11,21 L8,20 L1,22 L1,19 L-1,17 L-1,14 L3,13 L3,10 L0,7 L2,4 L0,3 Z " transform="translate(836,628)" metadata-bgcolor="#5186a8" class="bgcolor-81-134-168" metadata-colorID="20" stroke="black" stroke-width="1" stroke-alignment="outer" style="fill: #FFFFFF" /><path d="M0,0 L0,3 L-5,9 L-5,14 L2,9 L0,13 L-5,18 L-1,17 L3,11 L4,13 L0,19 L-7,25 L-10,28 L-13,30 L-7,32 L-6,29 L-2,28 L-5,33 L-10,37 L-11,39 L-14,39 L-14,41 L-16,41 L-18,33 L-19,32 L-23,30 L-31,24 L-30,21 L-26,24 L-21,24 L-23,19 L-33,14 L-36,12 L-36,10 L-30,12 L-28,14 L-27,11 L-31,9 L-38,3 L-38,1 L-35,2 L-33,4 L-32,6 L-28,7 L-24,8 L-21,8 L-21,6 L-12,7 L-4,6 L-2,1 Z " transform="translate(1824,570)" metadata-bgcolor="#295677" class="bgcolor-41-86-119" metadata-colorID="30" stroke="black" stroke-width="1" stroke-alignment="outer" style="fill: #FFFFFF" /><path d="M0,0 L3,1 L5,5 L7,5 L7,7 L11,7 L10,3 L16,3 L21,8 L22,6 L27,6 L29,5 L29,8 L31,8 L31,2 L37,3 L38,5 L38,2 L43,3 L44,6 L49,7 L52,4 L56,5 L57,7 L58,5 L64,5 L65,3 L70,4 L74,8 L74,6 L79,5 L80,1 L88,1 L90,7 L91,9 L89,9 L88,12 L37,12 L0,13 Z " transform="translate(0,532)" metadata-bgcolor="#23597d" class="bgcolor-35-89-125" metadata-colorID="22" stroke="black" stroke-width="1" stroke-alignment="outer" style="fill: #FFFFFF" /><path d="M0,0 L2,0 L7,8 L7,10 L11,12 L13,13 L13,9 L17,10 L17,12 L22,14 L24,16 L25,18 L32,19 L35,22 L42,16 L45,16 L43,20 L34,26 L33,29 L36,29 L37,26 L42,24 L42,27 L32,33 L27,32 L30,30 L26,31 L24,32 L27,33 L27,38 L25,40 L21,40 L21,38 L18,39 L11,34 L12,32 L15,33 L18,36 L18,33 L14,31 L9,27 L9,25 L14,27 L14,29 L20,27 L18,26 L18,24 L13,22 L6,16 L2,10 L3,8 L2,4 Z " transform="translate(1704,558)" metadata-bgcolor="#295677" class="bgcolor-41-86-119" metadata-colorID="30" stroke="black" stroke-width="1" stroke-alignment="outer" style="fill: #FFFFFF" /><path d="M0,0 L2,1 L5,14 L7,19 L9,25 L8,28 L11,32 L10,35 L7,32 L9,38 L11,40 L12,42 L10,45 L8,49 L5,48 L2,44 L1,46 L-4,45 L-5,41 L-6,46 L-11,48 L-13,44 L-9,44 L-7,38 L-5,33 L-7,31 L-8,26 L-5,22 L-4,17 L-2,13 Z " transform="translate(755,724)" metadata-bgcolor="#295677" class="bgcolor-41-86-119" metadata-colorID="30" stroke="black" stroke-width="1" stroke-alignment="outer" style="fill: #FFFFFF" /><path d="M0,0 L1,0 L3,8 L5,14 L4,20 L7,26 L4,26 L7,31 L7,37 L5,33 L5,37 L9,41 L8,43 L6,42 L8,48 L11,51 L10,54 L6,53 L5,48 L4,53 L2,50 L0,52 L-3,50 L-1,54 L-6,53 L-7,56 L-10,53 L-8,49 L-6,43 L-9,44 L-7,40 L-6,38 L-7,38 L-7,32 L-7,28 L-5,24 L-3,20 L-5,19 L-4,14 L-2,9 Z " transform="translate(610,702)" metadata-bgcolor="#295677" class="bgcolor-41-86-119" metadata-colorID="30" stroke="black" stroke-width="1" stroke-alignment="outer" style="fill: #FFFFFF" /><path d="M0,0 L1,4 L-3,10 L-9,15 L-12,18 L-13,19 L-9,20 L-13,24 L-20,24 L-30,21 L-31,18 L-36,16 L-46,9 L-45,6 L-41,8 L-39,9 L-39,7 L-43,3 L-41,2 L-41,4 L-36,4 L-34,3 L-26,6 L-29,8 L-27,10 L-35,9 L-26,13 L-26,15 L-24,15 L-22,9 L-19,8 L-18,6 L-20,5 L-17,2 L-17,5 L-15,3 L-10,3 L-10,5 L-6,3 L-5,5 L-3,3 L0,3 Z " transform="translate(1828,552)" metadata-bgcolor="#295d83" class="bgcolor-41-93-131" metadata-colorID="29" stroke="black" stroke-width="1" stroke-alignment="outer" style="fill: #FFFFFF" /><path d="M0,0 L1,0 L4,12 L6,17 L8,22 L9,24 L7,24 L9,33 L10,36 L9,39 L8,38 L6,43 L2,43 L2,39 L0,39 L-1,41 L-2,37 L-4,41 L-7,38 L-6,33 L-11,36 L-10,32 L-8,28 L-8,24 L-6,19 L-4,14 L-3,13 L-1,1 Z " transform="translate(851,743)" metadata-bgcolor="#356687" class="bgcolor-53-102-135" metadata-colorID="25" stroke="black" stroke-width="1" stroke-alignment="outer" style="fill: #FFFFFF" /><path d="M0,0 L1,2 L5,3 L6,6 L12,4 L12,9 L15,9 L15,11 L17,11 L18,6 L23,4 L23,2 L25,2 L26,7 L22,11 L18,12 L25,12 L29,8 L32,8 L34,4 L37,1 L35,6 L31,11 L23,16 L21,16 L20,19 L15,21 L20,20 L19,22 L13,24 L7,24 L1,18 L2,14 L4,18 L7,18 L4,13 L1,10 L3,7 L-1,3 Z " transform="translate(1654,568)" metadata-bgcolor="#295d83" class="bgcolor-41-93-131" metadata-colorID="29" stroke="black" stroke-width="1" stroke-alignment="outer" style="fill: #FFFFFF" /><path d="M0,0 L24,0 L59,2 L63,3 L61,7 L59,9 L45,8 L3,2 Z " transform="translate(1166,1025)" metadata-bgcolor="#89bed1" class="bgcolor-137-190-209" metadata-colorID="12" stroke="black" stroke-width="1" stroke-alignment="outer" style="fill: #FFFFFF" /></svg>