<?xml version="1.0" encoding="utf-8" ?>
<svg baseProfile="full" height="1200" version="1.1" width="1200" xmlns="http://www.w3.org/2000/svg" xmlns:ev="http://www.w3.org/2001/xml-events" xmlns:xlink="http://www.w3.org/1999/xlink"><defs /><path d="M 1034 75 L 1033 76 L 1031 76 L 1030 77 L 1029 77 L 1025 81 L 1025 82 L 1024 83 L 1024 89 L 1025 90 L 1025 92 L 1026 93 L 1026 100 L 1025 101 L 1025 102 L 1024 103 L 1023 102 L 1023 101 L 1022 100 L 1022 99 L 1021 98 L 1021 87 L 1020 86 L 1020 84 L 1018 82 L 1017 82 L 1016 81 L 1014 81 L 1013 80 L 1012 80 L 1011 81 L 1007 81 L 1006 82 L 1005 82 L 1004 83 L 1003 83 L 1001 85 L 1000 85 L 999 86 L 999 87 L 998 88 L 998 93 L 999 94 L 999 95 L 1003 99 L 1003 100 L 1004 101 L 1004 102 L 1003 103 L 1003 104 L 999 108 L 999 109 L 994 114 L 993 114 L 992 115 L 990 115 L 989 116 L 988 116 L 987 117 L 986 117 L 985 118 L 984 118 L 983 119 L 982 119 L 981 120 L 980 120 L 979 121 L 978 121 L 977 122 L 976 122 L 974 124 L 973 124 L 972 125 L 971 125 L 970 126 L 969 126 L 967 128 L 966 128 L 965 129 L 964 129 L 962 131 L 961 131 L 959 133 L 958 133 L 955 136 L 954 136 L 952 138 L 951 138 L 947 142 L 946 142 L 943 145 L 942 145 L 937 150 L 936 150 L 930 156 L 929 156 L 921 164 L 920 164 L 901 183 L 900 183 L 882 201 L 882 202 L 853 231 L 853 232 L 820 265 L 820 266 L 816 270 L 815 270 L 792 293 L 791 293 L 784 300 L 783 300 L 778 305 L 777 305 L 773 309 L 772 309 L 768 313 L 767 313 L 764 316 L 763 316 L 760 319 L 759 319 L 756 322 L 755 322 L 753 324 L 752 324 L 749 327 L 748 327 L 746 329 L 745 329 L 743 331 L 742 331 L 740 333 L 739 333 L 737 335 L 736 335 L 734 337 L 733 337 L 731 339 L 730 339 L 729 340 L 728 340 L 726 342 L 725 342 L 723 344 L 722 344 L 720 346 L 719 346 L 718 347 L 717 347 L 715 349 L 714 349 L 713 350 L 712 350 L 710 352 L 709 352 L 708 353 L 707 353 L 705 355 L 704 355 L 703 356 L 702 356 L 700 358 L 699 358 L 698 359 L 697 359 L 695 361 L 694 361 L 693 362 L 692 362 L 691 363 L 690 363 L 689 364 L 688 364 L 687 365 L 686 365 L 684 367 L 683 367 L 682 368 L 681 368 L 680 369 L 679 369 L 678 370 L 677 370 L 676 371 L 675 371 L 673 373 L 672 373 L 671 374 L 670 374 L 669 375 L 668 375 L 667 376 L 666 376 L 665 377 L 664 377 L 663 378 L 662 378 L 661 379 L 660 379 L 659 380 L 657 380 L 656 381 L 655 381 L 654 382 L 653 382 L 652 383 L 651 383 L 650 384 L 648 384 L 647 385 L 646 385 L 645 386 L 643 386 L 642 387 L 640 387 L 639 388 L 637 388 L 636 389 L 633 389 L 632 390 L 630 390 L 629 391 L 627 391 L 626 392 L 624 392 L 623 393 L 622 393 L 621 394 L 619 394 L 617 396 L 616 396 L 615 397 L 614 397 L 613 398 L 612 398 L 610 400 L 609 400 L 607 402 L 606 402 L 600 408 L 599 408 L 594 413 L 594 414 L 589 419 L 589 420 L 586 423 L 586 424 L 584 426 L 584 427 L 582 429 L 582 430 L 580 432 L 580 433 L 577 436 L 577 437 L 574 440 L 574 441 L 570 445 L 570 446 L 561 455 L 561 456 L 560 457 L 559 457 L 546 470 L 545 470 L 540 475 L 539 475 L 536 478 L 535 478 L 531 482 L 530 482 L 528 484 L 527 484 L 525 486 L 524 486 L 521 489 L 520 489 L 518 491 L 517 491 L 515 493 L 514 493 L 513 494 L 512 494 L 510 496 L 509 496 L 507 498 L 506 498 L 505 499 L 504 499 L 502 501 L 501 501 L 500 502 L 499 502 L 498 503 L 497 503 L 495 505 L 494 505 L 493 506 L 492 506 L 491 507 L 490 507 L 489 508 L 488 508 L 487 509 L 486 509 L 485 510 L 484 510 L 483 511 L 482 511 L 481 512 L 480 512 L 479 513 L 477 513 L 476 514 L 475 514 L 474 515 L 473 515 L 472 516 L 470 516 L 469 517 L 468 517 L 467 518 L 465 518 L 464 519 L 463 519 L 462 520 L 460 520 L 459 521 L 457 521 L 456 522 L 455 522 L 454 523 L 452 523 L 451 524 L 449 524 L 448 525 L 445 525 L 444 526 L 442 526 L 441 527 L 437 527 L 436 528 L 433 528 L 432 529 L 428 529 L 427 530 L 423 530 L 422 531 L 419 531 L 418 532 L 414 532 L 413 533 L 410 533 L 409 534 L 407 534 L 406 535 L 403 535 L 402 536 L 400 536 L 399 537 L 397 537 L 396 538 L 394 538 L 393 539 L 392 539 L 391 540 L 390 540 L 389 541 L 388 541 L 387 542 L 385 542 L 384 543 L 383 543 L 381 545 L 380 545 L 378 547 L 377 547 L 375 549 L 374 549 L 371 552 L 370 552 L 365 557 L 364 557 L 350 571 L 350 572 L 344 578 L 344 579 L 340 583 L 340 584 L 337 587 L 337 588 L 335 590 L 335 591 L 332 594 L 332 595 L 330 597 L 330 598 L 329 599 L 329 600 L 327 602 L 327 603 L 326 604 L 326 605 L 324 607 L 324 608 L 323 609 L 323 610 L 322 611 L 322 612 L 320 614 L 320 615 L 319 616 L 319 617 L 318 618 L 318 619 L 317 620 L 317 621 L 316 622 L 316 623 L 315 624 L 315 626 L 314 627 L 314 628 L 313 629 L 313 630 L 312 631 L 312 633 L 311 634 L 311 635 L 310 636 L 310 638 L 309 639 L 309 641 L 308 642 L 308 644 L 307 645 L 307 647 L 306 648 L 306 650 L 305 651 L 305 653 L 304 654 L 304 656 L 303 657 L 303 660 L 302 661 L 302 664 L 301 665 L 301 668 L 300 669 L 300 672 L 299 673 L 299 676 L 298 677 L 298 681 L 297 682 L 297 687 L 296 688 L 296 693 L 295 694 L 295 699 L 294 700 L 294 708 L 293 709 L 293 723 L 292 724 L 292 775 L 291 776 L 291 786 L 290 787 L 290 795 L 289 796 L 289 802 L 288 803 L 288 808 L 287 809 L 287 813 L 286 814 L 286 818 L 285 819 L 285 823 L 284 824 L 284 827 L 283 828 L 283 831 L 282 832 L 282 835 L 281 836 L 281 838 L 280 839 L 280 842 L 279 843 L 279 845 L 278 846 L 278 849 L 277 850 L 277 852 L 276 853 L 276 855 L 275 856 L 275 858 L 274 859 L 274 861 L 273 862 L 273 864 L 272 865 L 272 866 L 271 867 L 271 868 L 269 870 L 269 871 L 267 873 L 267 874 L 265 876 L 265 877 L 263 879 L 263 880 L 262 881 L 262 882 L 260 884 L 260 885 L 258 887 L 258 888 L 257 889 L 257 890 L 255 892 L 255 893 L 254 894 L 254 895 L 253 896 L 253 898 L 255 900 L 258 900 L 259 899 L 260 899 L 263 896 L 264 896 L 271 889 L 271 888 L 276 883 L 276 882 L 280 878 L 280 877 L 282 875 L 282 874 L 284 872 L 284 871 L 286 869 L 286 868 L 288 866 L 288 865 L 289 864 L 289 863 L 291 861 L 291 860 L 292 859 L 292 858 L 293 857 L 293 856 L 294 855 L 294 854 L 295 853 L 295 852 L 296 851 L 296 850 L 297 849 L 297 848 L 298 847 L 298 846 L 299 845 L 299 843 L 300 842 L 300 841 L 301 840 L 301 838 L 302 837 L 302 835 L 303 834 L 303 832 L 304 831 L 304 828 L 305 827 L 305 824 L 306 823 L 306 819 L 307 818 L 307 812 L 308 811 L 308 804 L 309 803 L 309 791 L 310 790 L 310 766 L 311 765 L 311 747 L 312 746 L 312 735 L 313 734 L 313 726 L 314 725 L 314 719 L 315 718 L 315 715 L 316 714 L 316 711 L 317 710 L 319 712 L 319 716 L 320 717 L 320 721 L 321 722 L 321 726 L 322 727 L 322 731 L 323 732 L 323 736 L 324 737 L 324 742 L 325 743 L 325 749 L 326 750 L 326 759 L 327 760 L 327 795 L 326 796 L 326 802 L 325 803 L 325 807 L 324 808 L 324 811 L 323 812 L 323 815 L 322 816 L 322 818 L 321 819 L 321 821 L 320 822 L 320 823 L 319 824 L 319 826 L 318 827 L 318 828 L 317 829 L 317 830 L 316 831 L 316 832 L 314 834 L 314 835 L 313 836 L 313 837 L 311 839 L 311 840 L 309 842 L 309 843 L 307 845 L 307 846 L 304 849 L 304 850 L 301 853 L 301 854 L 299 856 L 299 857 L 297 859 L 297 860 L 296 861 L 296 862 L 294 864 L 294 865 L 293 866 L 293 867 L 292 868 L 292 869 L 291 870 L 291 871 L 290 872 L 290 874 L 289 875 L 289 876 L 288 877 L 288 879 L 287 880 L 287 883 L 286 884 L 286 887 L 285 888 L 285 894 L 284 895 L 284 911 L 285 912 L 285 919 L 286 920 L 286 927 L 287 928 L 287 947 L 286 948 L 286 963 L 285 964 L 285 975 L 284 976 L 284 987 L 283 988 L 283 1000 L 282 1001 L 282 1015 L 281 1016 L 281 1036 L 280 1037 L 280 1061 L 279 1062 L 279 1088 L 278 1089 L 278 1108 L 277 1109 L 277 1123 L 276 1124 L 276 1133 L 275 1134 L 275 1141 L 274 1142 L 274 1149 L 273 1150 L 273 1153 L 274 1154 L 274 1159 L 275 1160 L 275 1162 L 277 1164 L 277 1165 L 281 1169 L 282 1169 L 283 1170 L 285 1170 L 286 1171 L 285 1172 L 279 1172 L 278 1171 L 272 1171 L 271 1170 L 265 1170 L 264 1169 L 257 1169 L 256 1168 L 249 1168 L 248 1167 L 241 1167 L 240 1166 L 231 1166 L 230 1165 L 221 1165 L 220 1164 L 211 1164 L 210 1163 L 199 1163 L 198 1162 L 187 1162 L 186 1161 L 175 1161 L 174 1160 L 161 1160 L 160 1159 L 147 1159 L 146 1158 L 132 1158 L 131 1157 L 116 1157 L 115 1156 L 99 1156 L 98 1155 L 81 1155 L 80 1154 L 61 1154 L 60 1153 L 40 1153 L 39 1152 L 17 1152 L 16 1151 L 0 1151 L 0 1156 L 6 1156 L 7 1157 L 28 1157 L 29 1158 L 49 1158 L 50 1159 L 69 1159 L 70 1160 L 88 1160 L 89 1161 L 106 1161 L 107 1162 L 123 1162 L 124 1163 L 139 1163 L 140 1164 L 154 1164 L 155 1165 L 168 1165 L 169 1166 L 181 1166 L 182 1167 L 193 1167 L 194 1168 L 204 1168 L 205 1169 L 215 1169 L 216 1170 L 225 1170 L 226 1171 L 235 1171 L 236 1172 L 244 1172 L 245 1173 L 252 1173 L 253 1174 L 260 1174 L 261 1175 L 267 1175 L 268 1176 L 274 1176 L 275 1177 L 282 1177 L 283 1178 L 293 1178 L 294 1179 L 314 1179 L 315 1178 L 320 1178 L 321 1177 L 323 1177 L 324 1176 L 325 1176 L 327 1174 L 328 1174 L 331 1171 L 331 1169 L 330 1168 L 330 1165 L 329 1164 L 329 1163 L 327 1161 L 327 1160 L 325 1158 L 325 1157 L 320 1152 L 320 1151 L 313 1144 L 313 1143 L 310 1140 L 310 1139 L 309 1138 L 309 1137 L 308 1136 L 308 1135 L 307 1134 L 307 1133 L 306 1132 L 306 1130 L 305 1129 L 305 1127 L 304 1126 L 304 1123 L 303 1122 L 303 1118 L 302 1117 L 302 1108 L 301 1107 L 301 1103 L 302 1102 L 302 1091 L 303 1090 L 303 1085 L 304 1084 L 304 1080 L 305 1079 L 305 1075 L 306 1074 L 306 1071 L 307 1070 L 307 1067 L 308 1066 L 308 1063 L 309 1062 L 309 1059 L 310 1058 L 310 1056 L 311 1055 L 311 1052 L 312 1051 L 312 1048 L 313 1047 L 313 1044 L 314 1043 L 314 1040 L 315 1039 L 315 1035 L 316 1034 L 316 1031 L 317 1030 L 317 1026 L 318 1025 L 318 1021 L 319 1020 L 319 1017 L 320 1016 L 320 1012 L 321 1011 L 321 1007 L 322 1006 L 322 1002 L 323 1001 L 323 997 L 324 996 L 324 992 L 325 991 L 325 988 L 326 987 L 326 983 L 327 982 L 327 979 L 328 978 L 328 974 L 329 973 L 329 970 L 330 969 L 330 966 L 331 965 L 331 962 L 332 961 L 332 959 L 333 958 L 333 955 L 334 954 L 334 952 L 335 951 L 335 949 L 336 948 L 336 946 L 337 945 L 337 943 L 338 942 L 338 941 L 339 940 L 339 938 L 340 937 L 340 936 L 341 935 L 341 933 L 342 932 L 342 931 L 343 930 L 343 929 L 344 928 L 344 927 L 345 926 L 345 925 L 346 924 L 346 923 L 348 921 L 348 920 L 349 919 L 349 918 L 351 916 L 351 915 L 353 913 L 353 912 L 355 910 L 355 909 L 356 908 L 356 907 L 358 905 L 358 904 L 360 902 L 360 901 L 363 898 L 363 897 L 365 895 L 365 894 L 367 892 L 367 891 L 369 889 L 369 888 L 371 886 L 371 885 L 373 883 L 373 882 L 374 881 L 374 880 L 376 878 L 376 877 L 377 876 L 377 875 L 379 873 L 379 872 L 380 871 L 380 870 L 381 869 L 381 868 L 382 867 L 382 866 L 383 865 L 383 864 L 384 863 L 384 862 L 385 861 L 385 860 L 386 859 L 386 858 L 387 857 L 387 856 L 388 855 L 388 853 L 389 852 L 389 850 L 390 849 L 390 847 L 391 846 L 391 843 L 392 842 L 392 839 L 393 838 L 393 832 L 394 831 L 394 818 L 393 817 L 393 811 L 392 810 L 392 807 L 391 806 L 391 803 L 390 802 L 390 800 L 389 799 L 389 798 L 388 797 L 388 795 L 387 794 L 387 793 L 386 792 L 386 791 L 385 790 L 385 789 L 384 788 L 384 787 L 383 786 L 383 785 L 381 783 L 381 782 L 380 781 L 380 780 L 378 778 L 378 777 L 377 776 L 377 775 L 375 773 L 375 772 L 373 770 L 373 769 L 371 767 L 371 766 L 369 764 L 369 763 L 367 761 L 367 760 L 365 758 L 365 757 L 363 755 L 363 754 L 361 752 L 361 751 L 359 749 L 359 748 L 356 745 L 356 744 L 354 742 L 354 741 L 351 738 L 351 737 L 349 735 L 349 734 L 346 731 L 346 730 L 343 727 L 343 726 L 341 724 L 341 723 L 338 720 L 338 719 L 335 716 L 335 715 L 336 714 L 337 714 L 357 734 L 357 735 L 364 742 L 364 743 L 369 748 L 369 749 L 372 752 L 372 753 L 375 756 L 375 757 L 378 760 L 378 761 L 380 763 L 380 764 L 382 766 L 382 767 L 384 769 L 384 770 L 385 771 L 385 772 L 387 774 L 387 775 L 388 776 L 388 777 L 389 778 L 389 779 L 390 780 L 390 781 L 391 782 L 391 783 L 392 784 L 392 785 L 393 786 L 393 787 L 394 788 L 394 789 L 395 790 L 395 791 L 396 792 L 396 794 L 397 795 L 397 796 L 398 797 L 398 799 L 399 800 L 399 802 L 400 803 L 400 805 L 401 806 L 401 809 L 402 810 L 402 813 L 403 814 L 403 819 L 404 820 L 404 843 L 403 844 L 403 848 L 402 849 L 402 851 L 401 852 L 401 854 L 400 855 L 400 856 L 399 857 L 399 859 L 398 860 L 398 861 L 397 862 L 397 863 L 396 864 L 396 866 L 395 867 L 395 868 L 394 869 L 394 871 L 393 872 L 393 873 L 392 874 L 392 875 L 391 876 L 391 878 L 390 879 L 390 881 L 389 882 L 389 884 L 388 885 L 388 887 L 387 888 L 387 890 L 386 891 L 386 894 L 385 895 L 385 899 L 384 900 L 384 907 L 383 908 L 383 916 L 384 917 L 384 923 L 385 924 L 385 927 L 386 928 L 386 929 L 387 930 L 387 931 L 388 932 L 388 933 L 389 934 L 389 935 L 390 936 L 390 937 L 392 939 L 392 940 L 393 941 L 393 942 L 395 944 L 395 945 L 398 948 L 398 949 L 402 953 L 402 954 L 413 965 L 414 965 L 419 970 L 420 970 L 432 982 L 432 983 L 435 986 L 435 987 L 437 989 L 437 990 L 439 992 L 439 993 L 440 994 L 440 995 L 441 996 L 441 997 L 442 998 L 442 999 L 443 1000 L 443 1001 L 444 1002 L 444 1004 L 445 1005 L 445 1006 L 446 1007 L 446 1009 L 447 1010 L 447 1012 L 448 1013 L 448 1015 L 449 1016 L 449 1018 L 450 1019 L 450 1021 L 451 1022 L 451 1024 L 452 1025 L 452 1026 L 453 1027 L 453 1029 L 454 1030 L 454 1032 L 455 1033 L 455 1035 L 456 1036 L 456 1037 L 457 1038 L 457 1040 L 458 1041 L 458 1043 L 459 1044 L 459 1045 L 460 1046 L 460 1048 L 461 1049 L 461 1051 L 462 1052 L 462 1053 L 463 1054 L 463 1056 L 464 1057 L 464 1058 L 465 1059 L 465 1061 L 466 1062 L 466 1064 L 467 1065 L 467 1066 L 468 1067 L 468 1069 L 469 1070 L 469 1071 L 470 1072 L 470 1074 L 471 1075 L 471 1076 L 472 1077 L 472 1079 L 473 1080 L 473 1081 L 474 1082 L 474 1084 L 475 1085 L 475 1087 L 476 1088 L 476 1089 L 477 1090 L 477 1092 L 478 1093 L 478 1094 L 479 1095 L 479 1097 L 480 1098 L 480 1099 L 481 1100 L 481 1102 L 482 1103 L 482 1104 L 483 1105 L 483 1107 L 484 1108 L 484 1109 L 485 1110 L 485 1112 L 486 1113 L 486 1114 L 487 1115 L 487 1117 L 488 1118 L 488 1119 L 489 1120 L 489 1122 L 490 1123 L 490 1124 L 491 1125 L 491 1126 L 492 1127 L 492 1129 L 493 1130 L 493 1131 L 494 1132 L 494 1134 L 495 1135 L 495 1136 L 496 1137 L 496 1143 L 497 1144 L 497 1148 L 498 1149 L 498 1151 L 499 1152 L 499 1154 L 500 1155 L 500 1156 L 501 1157 L 501 1158 L 502 1159 L 502 1160 L 504 1162 L 504 1163 L 511 1170 L 512 1170 L 513 1171 L 514 1171 L 515 1172 L 516 1172 L 517 1173 L 519 1173 L 520 1174 L 524 1174 L 525 1175 L 532 1175 L 533 1176 L 540 1176 L 541 1177 L 555 1177 L 558 1174 L 558 1169 L 556 1167 L 556 1166 L 552 1162 L 552 1161 L 546 1155 L 546 1154 L 543 1151 L 543 1150 L 542 1149 L 542 1145 L 546 1141 L 546 1140 L 547 1139 L 547 1137 L 548 1136 L 548 1135 L 547 1134 L 547 1130 L 546 1129 L 546 1127 L 545 1126 L 545 1125 L 544 1124 L 544 1123 L 543 1122 L 543 1121 L 541 1119 L 541 1118 L 538 1115 L 538 1114 L 526 1102 L 525 1102 L 521 1098 L 521 1097 L 520 1096 L 520 1095 L 519 1094 L 519 1093 L 518 1092 L 518 1091 L 516 1089 L 516 1088 L 515 1087 L 515 1086 L 514 1085 L 514 1084 L 513 1083 L 513 1082 L 512 1081 L 512 1080 L 511 1079 L 511 1078 L 509 1076 L 509 1075 L 508 1074 L 508 1073 L 507 1072 L 507 1071 L 506 1070 L 506 1069 L 505 1068 L 505 1067 L 504 1066 L 504 1065 L 503 1064 L 503 1063 L 502 1062 L 502 1061 L 501 1060 L 501 1059 L 500 1058 L 500 1057 L 499 1056 L 499 1055 L 498 1054 L 498 1053 L 497 1052 L 497 1051 L 496 1050 L 496 1049 L 495 1048 L 495 1047 L 494 1046 L 494 1045 L 493 1044 L 493 1043 L 492 1042 L 492 1041 L 491 1040 L 491 1039 L 490 1038 L 490 1037 L 489 1036 L 489 1035 L 488 1034 L 488 1033 L 487 1032 L 487 1031 L 486 1030 L 486 1029 L 485 1028 L 485 1027 L 484 1026 L 484 1025 L 483 1024 L 483 1022 L 482 1021 L 482 1020 L 481 1019 L 481 1018 L 480 1017 L 480 1016 L 479 1015 L 479 1014 L 478 1013 L 478 1011 L 477 1010 L 477 1009 L 476 1008 L 476 1007 L 475 1006 L 475 1004 L 474 1003 L 474 1002 L 473 1001 L 473 1000 L 472 999 L 472 997 L 471 996 L 471 995 L 470 994 L 470 993 L 469 992 L 469 990 L 468 989 L 468 988 L 467 987 L 467 985 L 466 984 L 466 982 L 465 981 L 465 980 L 464 979 L 464 977 L 463 976 L 463 974 L 462 973 L 462 971 L 461 970 L 461 968 L 460 967 L 460 965 L 459 964 L 459 961 L 458 960 L 458 956 L 457 955 L 457 951 L 456 950 L 456 944 L 455 943 L 455 909 L 456 908 L 456 900 L 457 899 L 457 894 L 458 893 L 458 888 L 459 887 L 459 883 L 460 882 L 460 878 L 461 877 L 461 874 L 462 873 L 462 870 L 463 869 L 463 866 L 464 865 L 464 862 L 465 861 L 465 858 L 466 857 L 466 855 L 467 854 L 467 852 L 468 851 L 468 848 L 469 847 L 469 845 L 470 844 L 470 842 L 471 841 L 471 839 L 472 838 L 472 836 L 473 835 L 473 833 L 474 832 L 474 831 L 475 830 L 475 828 L 476 827 L 476 825 L 477 824 L 477 823 L 478 822 L 478 820 L 479 819 L 479 817 L 480 816 L 480 815 L 481 814 L 481 812 L 482 811 L 482 810 L 483 809 L 483 807 L 484 806 L 484 805 L 485 804 L 485 803 L 486 802 L 486 801 L 487 800 L 487 798 L 488 797 L 488 796 L 489 795 L 489 794 L 491 792 L 493 794 L 494 794 L 495 795 L 496 795 L 497 796 L 509 796 L 510 795 L 513 795 L 514 794 L 516 794 L 517 793 L 519 793 L 520 792 L 523 792 L 524 791 L 525 791 L 526 790 L 528 790 L 529 789 L 531 789 L 532 788 L 534 788 L 535 787 L 537 787 L 538 786 L 540 786 L 541 785 L 543 785 L 544 784 L 546 784 L 547 783 L 548 783 L 549 782 L 551 782 L 552 781 L 555 781 L 556 780 L 558 780 L 559 779 L 561 779 L 562 778 L 565 778 L 566 777 L 568 777 L 569 776 L 572 776 L 573 775 L 576 775 L 577 774 L 580 774 L 581 773 L 584 773 L 585 772 L 588 772 L 589 771 L 592 771 L 593 770 L 595 770 L 596 769 L 599 769 L 600 768 L 601 768 L 602 767 L 604 767 L 605 766 L 606 767 L 606 768 L 607 769 L 607 770 L 608 771 L 608 772 L 609 773 L 609 775 L 610 776 L 610 777 L 614 781 L 614 782 L 615 783 L 615 785 L 616 786 L 616 787 L 617 788 L 617 790 L 618 791 L 618 793 L 619 794 L 619 795 L 620 796 L 620 799 L 621 800 L 621 802 L 622 803 L 622 806 L 623 807 L 623 810 L 624 811 L 624 816 L 625 817 L 625 823 L 626 824 L 626 850 L 625 851 L 625 859 L 624 860 L 624 866 L 623 867 L 623 872 L 622 873 L 622 878 L 621 879 L 621 886 L 620 887 L 620 896 L 619 897 L 619 940 L 620 941 L 620 951 L 621 952 L 621 959 L 622 960 L 622 965 L 623 966 L 623 971 L 624 972 L 624 977 L 625 978 L 625 982 L 626 983 L 626 986 L 627 987 L 627 990 L 628 991 L 628 994 L 629 995 L 629 997 L 630 998 L 630 1000 L 631 1001 L 631 1003 L 632 1004 L 632 1006 L 633 1007 L 633 1009 L 634 1010 L 634 1013 L 635 1014 L 635 1017 L 636 1018 L 636 1022 L 637 1023 L 637 1029 L 638 1030 L 638 1038 L 639 1039 L 639 1053 L 640 1054 L 640 1065 L 636 1069 L 636 1070 L 628 1078 L 628 1079 L 616 1091 L 615 1091 L 610 1096 L 609 1096 L 606 1099 L 605 1099 L 603 1101 L 602 1101 L 601 1102 L 600 1102 L 599 1103 L 598 1103 L 596 1105 L 595 1105 L 594 1106 L 593 1106 L 592 1107 L 591 1107 L 589 1109 L 588 1109 L 585 1112 L 584 1112 L 579 1117 L 579 1118 L 576 1121 L 576 1122 L 575 1123 L 575 1124 L 574 1125 L 574 1128 L 573 1129 L 573 1134 L 574 1135 L 574 1138 L 575 1139 L 575 1140 L 576 1141 L 576 1142 L 578 1144 L 578 1145 L 589 1156 L 590 1156 L 592 1158 L 593 1158 L 595 1160 L 596 1160 L 597 1161 L 598 1161 L 600 1163 L 601 1163 L 602 1164 L 603 1164 L 604 1165 L 605 1165 L 606 1166 L 608 1166 L 609 1167 L 610 1167 L 611 1168 L 613 1168 L 614 1169 L 616 1169 L 617 1170 L 623 1170 L 624 1169 L 625 1169 L 625 1168 L 626 1167 L 626 1165 L 625 1164 L 625 1163 L 622 1160 L 622 1159 L 620 1157 L 620 1156 L 618 1154 L 618 1152 L 617 1151 L 617 1146 L 618 1145 L 618 1144 L 631 1131 L 631 1130 L 635 1126 L 635 1125 L 636 1124 L 637 1125 L 637 1130 L 636 1131 L 636 1142 L 635 1143 L 635 1147 L 636 1148 L 636 1155 L 637 1156 L 637 1158 L 638 1159 L 638 1160 L 639 1161 L 639 1162 L 640 1163 L 640 1164 L 644 1168 L 645 1168 L 646 1169 L 647 1169 L 648 1170 L 649 1170 L 650 1171 L 656 1171 L 657 1170 L 660 1170 L 661 1169 L 689 1169 L 690 1170 L 718 1170 L 719 1171 L 830 1171 L 831 1170 L 859 1170 L 860 1169 L 899 1169 L 900 1168 L 930 1168 L 931 1167 L 954 1167 L 955 1166 L 976 1166 L 977 1165 L 996 1165 L 997 1164 L 1015 1164 L 1016 1163 L 1033 1163 L 1034 1162 L 1050 1162 L 1051 1161 L 1065 1161 L 1066 1160 L 1079 1160 L 1080 1159 L 1093 1159 L 1094 1158 L 1106 1158 L 1107 1157 L 1119 1157 L 1120 1156 L 1131 1156 L 1132 1155 L 1142 1155 L 1143 1154 L 1153 1154 L 1154 1153 L 1165 1153 L 1166 1152 L 1175 1152 L 1176 1151 L 1186 1151 L 1187 1150 L 1197 1150 L 1198 1149 L 1199 1149 L 1199 1143 L 1196 1143 L 1195 1144 L 1192 1144 L 1191 1145 L 1181 1145 L 1180 1146 L 1171 1146 L 1170 1147 L 1160 1147 L 1159 1148 L 1149 1148 L 1148 1149 L 1138 1149 L 1137 1150 L 1126 1150 L 1125 1151 L 1114 1151 L 1113 1152 L 1100 1152 L 1099 1153 L 1087 1153 L 1086 1154 L 1072 1154 L 1071 1155 L 1057 1155 L 1056 1156 L 1042 1156 L 1041 1157 L 1025 1157 L 1024 1158 L 1008 1158 L 1007 1159 L 988 1159 L 987 1160 L 968 1160 L 967 1161 L 944 1161 L 943 1162 L 918 1162 L 917 1163 L 883 1163 L 882 1164 L 828 1164 L 827 1165 L 723 1165 L 722 1164 L 694 1164 L 693 1163 L 694 1162 L 694 1158 L 693 1157 L 693 1156 L 692 1155 L 692 1154 L 691 1153 L 691 1152 L 689 1150 L 689 1149 L 686 1146 L 686 1145 L 682 1141 L 682 1140 L 677 1135 L 677 1134 L 673 1130 L 673 1129 L 671 1127 L 671 1126 L 670 1125 L 670 1124 L 669 1123 L 669 1122 L 668 1121 L 668 1120 L 667 1119 L 667 1117 L 666 1116 L 666 1114 L 665 1113 L 665 1110 L 664 1109 L 664 1104 L 663 1103 L 663 1091 L 666 1088 L 666 1087 L 668 1085 L 668 1084 L 670 1082 L 670 1081 L 673 1078 L 673 1077 L 675 1075 L 675 1074 L 677 1072 L 677 1071 L 679 1069 L 679 1068 L 681 1066 L 681 1065 L 683 1063 L 683 1062 L 685 1060 L 685 1059 L 687 1057 L 687 1056 L 690 1053 L 690 1052 L 692 1050 L 692 1049 L 694 1047 L 694 1046 L 696 1044 L 696 1043 L 699 1040 L 699 1039 L 702 1036 L 702 1035 L 705 1032 L 705 1031 L 708 1028 L 708 1027 L 712 1023 L 712 1022 L 716 1018 L 716 1017 L 738 995 L 739 995 L 742 992 L 743 992 L 745 990 L 746 990 L 748 988 L 749 988 L 750 987 L 751 987 L 753 985 L 754 985 L 755 984 L 756 984 L 757 983 L 758 983 L 760 981 L 761 981 L 762 980 L 763 980 L 766 977 L 767 977 L 775 969 L 775 968 L 777 966 L 777 965 L 779 963 L 779 962 L 780 961 L 780 960 L 781 959 L 781 958 L 782 957 L 782 955 L 783 954 L 783 952 L 784 951 L 784 949 L 785 948 L 785 941 L 786 940 L 786 933 L 785 932 L 785 928 L 784 927 L 784 922 L 783 921 L 783 917 L 782 916 L 782 912 L 781 911 L 781 908 L 780 907 L 780 904 L 779 903 L 779 900 L 778 899 L 778 896 L 777 895 L 777 892 L 776 891 L 776 889 L 775 888 L 775 885 L 774 884 L 774 882 L 773 881 L 773 879 L 772 878 L 772 876 L 771 875 L 771 873 L 770 872 L 770 870 L 769 869 L 769 868 L 768 867 L 768 865 L 767 864 L 767 862 L 766 861 L 766 860 L 765 859 L 765 857 L 764 856 L 764 855 L 763 854 L 763 853 L 762 852 L 762 850 L 761 849 L 761 848 L 760 847 L 760 846 L 759 845 L 759 844 L 758 843 L 758 841 L 757 840 L 757 839 L 756 838 L 756 837 L 755 836 L 755 835 L 754 834 L 754 833 L 753 832 L 753 831 L 752 830 L 752 829 L 751 828 L 751 827 L 750 826 L 750 825 L 749 824 L 749 823 L 748 822 L 748 821 L 746 819 L 746 818 L 745 817 L 745 816 L 744 815 L 744 814 L 743 813 L 743 812 L 742 811 L 742 810 L 741 809 L 741 808 L 740 807 L 740 806 L 739 805 L 739 804 L 738 803 L 738 802 L 737 801 L 737 800 L 736 799 L 736 798 L 735 797 L 735 796 L 734 795 L 734 794 L 733 793 L 733 792 L 732 791 L 732 790 L 731 789 L 731 788 L 730 787 L 730 785 L 729 784 L 729 783 L 728 782 L 728 780 L 727 779 L 727 777 L 726 776 L 726 774 L 725 773 L 725 771 L 724 770 L 724 766 L 723 765 L 723 760 L 722 759 L 722 746 L 723 745 L 723 740 L 724 739 L 724 736 L 725 735 L 725 733 L 726 732 L 726 731 L 727 730 L 727 728 L 728 727 L 728 726 L 730 724 L 730 723 L 731 722 L 731 721 L 734 718 L 734 717 L 737 714 L 737 713 L 741 709 L 741 708 L 745 704 L 745 703 L 748 700 L 748 699 L 750 697 L 750 696 L 751 695 L 751 694 L 753 692 L 753 691 L 754 690 L 754 688 L 755 687 L 755 686 L 756 685 L 756 683 L 757 682 L 757 679 L 758 678 L 758 673 L 759 672 L 759 664 L 758 663 L 758 658 L 757 657 L 757 653 L 756 652 L 756 650 L 755 649 L 755 647 L 754 646 L 754 643 L 753 642 L 753 640 L 752 639 L 752 637 L 751 636 L 751 635 L 750 634 L 750 632 L 749 631 L 749 629 L 748 628 L 748 626 L 747 625 L 747 623 L 746 622 L 746 620 L 745 619 L 745 617 L 744 616 L 744 614 L 743 613 L 743 611 L 742 610 L 742 608 L 741 607 L 741 605 L 740 604 L 740 600 L 739 599 L 739 595 L 738 594 L 738 575 L 739 574 L 739 570 L 740 569 L 740 566 L 741 565 L 741 563 L 742 562 L 742 561 L 743 560 L 743 559 L 744 558 L 744 557 L 745 556 L 745 555 L 746 554 L 746 553 L 748 551 L 748 550 L 750 548 L 750 547 L 754 543 L 754 542 L 776 520 L 776 519 L 788 507 L 788 506 L 798 496 L 798 495 L 805 488 L 805 487 L 812 480 L 812 479 L 818 473 L 818 472 L 824 466 L 824 465 L 829 460 L 829 459 L 834 454 L 834 453 L 838 449 L 838 448 L 842 444 L 842 443 L 847 438 L 847 437 L 850 434 L 850 433 L 854 429 L 854 428 L 857 425 L 857 424 L 860 421 L 860 420 L 864 416 L 864 415 L 867 412 L 867 411 L 869 409 L 869 408 L 872 405 L 872 404 L 875 401 L 875 400 L 877 398 L 877 397 L 880 394 L 880 393 L 882 391 L 882 390 L 884 388 L 884 387 L 887 384 L 887 383 L 889 381 L 889 380 L 891 378 L 891 377 L 893 375 L 893 374 L 895 372 L 895 371 L 897 369 L 897 368 L 898 367 L 898 366 L 900 364 L 900 363 L 902 361 L 902 360 L 903 359 L 903 358 L 905 356 L 905 355 L 906 354 L 906 353 L 908 351 L 908 350 L 909 349 L 909 348 L 911 346 L 911 345 L 912 344 L 912 343 L 913 342 L 913 341 L 915 339 L 915 338 L 916 337 L 916 336 L 917 335 L 917 334 L 918 333 L 918 332 L 919 331 L 919 330 L 920 329 L 920 328 L 921 327 L 921 326 L 922 325 L 922 324 L 924 322 L 924 321 L 925 320 L 925 319 L 926 318 L 926 316 L 927 315 L 927 314 L 928 313 L 928 312 L 929 311 L 929 310 L 930 309 L 930 308 L 931 307 L 931 306 L 932 305 L 932 304 L 933 303 L 933 302 L 934 301 L 934 300 L 935 299 L 935 298 L 936 297 L 936 295 L 937 294 L 937 293 L 938 292 L 938 291 L 939 290 L 939 289 L 940 288 L 940 287 L 941 286 L 941 284 L 942 283 L 942 282 L 943 281 L 943 280 L 944 279 L 944 278 L 945 277 L 945 275 L 946 274 L 946 273 L 947 272 L 947 271 L 948 270 L 948 269 L 949 268 L 949 267 L 950 266 L 950 265 L 951 264 L 951 262 L 952 261 L 952 260 L 953 259 L 953 258 L 954 257 L 954 256 L 955 255 L 955 254 L 956 253 L 956 252 L 957 251 L 957 250 L 958 249 L 958 248 L 959 247 L 959 246 L 961 244 L 961 243 L 962 242 L 962 241 L 963 240 L 963 239 L 965 237 L 965 236 L 967 234 L 967 233 L 969 231 L 969 230 L 972 227 L 972 226 L 981 217 L 982 217 L 984 215 L 985 215 L 987 213 L 989 213 L 990 212 L 991 212 L 992 211 L 995 211 L 996 210 L 1003 210 L 1004 211 L 1008 211 L 1009 212 L 1012 212 L 1013 213 L 1015 213 L 1017 215 L 1021 215 L 1022 216 L 1023 216 L 1024 217 L 1025 217 L 1026 218 L 1027 218 L 1028 219 L 1029 219 L 1030 220 L 1031 220 L 1032 221 L 1033 221 L 1034 222 L 1035 222 L 1036 223 L 1037 223 L 1038 224 L 1039 224 L 1041 226 L 1042 226 L 1043 227 L 1044 227 L 1046 229 L 1047 229 L 1048 230 L 1049 230 L 1050 231 L 1051 231 L 1053 233 L 1054 233 L 1055 234 L 1056 234 L 1058 236 L 1059 236 L 1060 237 L 1061 237 L 1063 239 L 1064 239 L 1065 240 L 1066 240 L 1068 242 L 1069 242 L 1070 243 L 1071 243 L 1072 244 L 1073 244 L 1075 246 L 1076 246 L 1077 247 L 1078 247 L 1079 248 L 1080 248 L 1082 250 L 1083 250 L 1084 251 L 1085 251 L 1086 252 L 1087 252 L 1088 253 L 1089 253 L 1090 254 L 1091 254 L 1092 255 L 1093 255 L 1095 257 L 1097 257 L 1098 258 L 1099 258 L 1100 259 L 1101 259 L 1102 260 L 1104 260 L 1105 261 L 1107 261 L 1108 262 L 1112 262 L 1113 263 L 1114 263 L 1115 262 L 1118 262 L 1119 261 L 1120 261 L 1123 258 L 1123 257 L 1124 256 L 1124 253 L 1125 252 L 1125 244 L 1124 243 L 1124 240 L 1123 239 L 1123 236 L 1122 235 L 1122 233 L 1121 232 L 1121 230 L 1120 229 L 1120 228 L 1119 227 L 1119 226 L 1120 225 L 1120 224 L 1119 223 L 1119 222 L 1118 221 L 1118 220 L 1117 219 L 1117 218 L 1116 217 L 1116 216 L 1115 215 L 1115 214 L 1114 213 L 1114 212 L 1113 211 L 1113 209 L 1112 208 L 1112 207 L 1111 206 L 1111 205 L 1109 203 L 1109 202 L 1108 201 L 1108 200 L 1106 198 L 1106 197 L 1105 196 L 1105 195 L 1104 194 L 1104 193 L 1102 191 L 1102 190 L 1101 189 L 1101 188 L 1100 187 L 1100 186 L 1098 184 L 1098 183 L 1097 182 L 1097 181 L 1095 179 L 1095 178 L 1093 176 L 1093 175 L 1091 173 L 1091 172 L 1088 169 L 1088 168 L 1083 163 L 1082 163 L 1079 160 L 1078 160 L 1076 158 L 1076 150 L 1075 149 L 1075 146 L 1074 145 L 1074 143 L 1073 142 L 1073 141 L 1072 140 L 1072 138 L 1071 137 L 1071 136 L 1069 134 L 1069 133 L 1068 132 L 1068 131 L 1065 128 L 1065 127 L 1059 121 L 1059 120 L 1060 119 L 1060 115 L 1061 114 L 1061 108 L 1060 107 L 1060 104 L 1058 102 L 1058 101 L 1057 100 L 1056 100 L 1055 99 L 1053 99 L 1052 98 L 1048 98 L 1047 99 L 1046 98 L 1046 97 L 1047 96 L 1047 83 L 1046 82 L 1046 81 L 1045 80 L 1045 79 L 1042 76 L 1041 76 L 1040 75 Z" fill="#ffffff" id="zona_0" stroke="#000000" stroke-width="2" /></svg>